  0
SECTION
  2
HEADER
  9
$ACADVER
  1
AC1015
  9
$ACADMAINTVER
 70
     6
  9
$DWGCODEPAGE
  3
ANSI_1252
  9
$INSBASE
 10
0.0
 20
0.0
 30
0.0
  9
$EXTMIN
 10
-46.9164307139
 20
-53.4076396054
 30
0.0
  9
$EXTMAX
 10
51.0698763705
 20
56.6606177888
 30
0.0
  9
$LIMMIN
 10
0.0
 20
0.0
  9
$LIMMAX
 10
420.0
 20
297.0
  9
$ORTHOMODE
 70
     0
  9
$REGENMODE
 70
     1
  9
$FILLMODE
 70
     1
  9
$QTEXTMODE
 70
     0
  9
$MIRRTEXT
 70
     1
  9
$LTSCALE
 40
1.0
  9
$ATTMODE
 70
     1
  9
$TEXTSIZE
 40
3.5
  9
$TRACEWID
 40
1.0
  9
$TEXTSTYLE
  7
Standard
  9
$CLAYER
  8
0
  9
$CELTYPE
  6
ByLayer
  9
$CECOLOR
 62
   256
  9
$CELTSCALE
 40
1.0
  9
$DISPSILH
 70
     0
  9
$DIMSCALE
 40
1.0
  9
$DIMASZ
 40
3.302
  9
$DIMEXO
 40
0.0
  9
$DIMDLI
 40
3.75
  9
$DIMRND
 40
0.0
  9
$DIMDLE
 40
0.0
  9
$DIMEXE
 40
1.0
  9
$DIMTP
 40
0.0
  9
$DIMTM
 40
0.0
  9
$DIMTXT
 40
3.5
  9
$DIMCEN
 40
2.5
  9
$DIMTSZ
 40
0.0
  9
$DIMTOL
 70
     0
  9
$DIMLIM
 70
     0
  9
$DIMTIH
 70
     1
  9
$DIMTOH
 70
     1
  9
$DIMSE1
 70
     0
  9
$DIMSE2
 70
     0
  9
$DIMTAD
 70
     1
  9
$DIMZIN
 70
     1
  9
$DIMBLK
  1

  9
$DIMASO
 70
     1
  9
$DIMSHO
 70
     1
  9
$DIMPOST
  1

  9
$DIMAPOST
  1

  9
$DIMALT
 70
     0
  9
$DIMALTD
 70
     3
  9
$DIMALTF
 40
0.0393700787
  9
$DIMLFAC
 40
1.0
  9
$DIMTOFL
 70
     1
  9
$DIMTVP
 40
0.0
  9
$DIMTIX
 70
     0
  9
$DIMSOXD
 70
     0
  9
$DIMSAH
 70
     0
  9
$DIMBLK1
  1

  9
$DIMBLK2
  1

  9
$DIMSTYLE
  2
ISO-25
  9
$DIMCLRD
 70
     0
  9
$DIMCLRE
 70
     0
  9
$DIMCLRT
 70
     0
  9
$DIMTFAC
 40
1.0
  9
$DIMGAP
 40
1.524
  9
$DIMJUST
 70
     0
  9
$DIMSD1
 70
     0
  9
$DIMSD2
 70
     0
  9
$DIMTOLJ
 70
     0
  9
$DIMTZIN
 70
     1
  9
$DIMALTZ
 70
     0
  9
$DIMALTTZ
 70
     0
  9
$DIMUPT
 70
     0
  9
$DIMDEC
 70
     2
  9
$DIMTDEC
 70
     2
  9
$DIMALTU
 70
     2
  9
$DIMALTTD
 70
     3
  9
$DIMTXSTY
  7
Standard
  9
$DIMAUNIT
 70
     0
  9
$DIMADEC
 70
     2
  9
$DIMALTRND
 40
0.0
  9
$DIMAZIN
 70
     0
  9
$DIMDSEP
 70
    44
  9
$DIMATFIT
 70
     3
  9
$DIMFRAC
 70
     0
  9
$DIMLDRBLK
  1

  9
$DIMLUNIT
 70
     2
  9
$DIMLWD
 70
    -2
  9
$DIMLWE
 70
    -2
  9
$DIMTMOVE
 70
     0
  9
$LUNITS
 70
     2
  9
$LUPREC
 70
     2
  9
$SKETCHINC
 40
1.0
  9
$FILLETRAD
 40
10.0
  9
$AUNITS
 70
     0
  9
$AUPREC
 70
     2
  9
$MENU
  1
.
  9
$ELEVATION
 40
0.0
  9
$PELEVATION
 40
0.0
  9
$THICKNESS
 40
0.0
  9
$LIMCHECK
 70
     0
  9
$CHAMFERA
 40
0.0
  9
$CHAMFERB
 40
0.0
  9
$CHAMFERC
 40
0.0
  9
$CHAMFERD
 40
0.0
  9
$SKPOLY
 70
     0
  9
$TDCREATE
 40
2459752.411051979
  9
$TDUCREATE
 40
2459752.327718646
  9
$TDUPDATE
 40
2459752.411103217
  9
$TDUUPDATE
 40
2459752.327769884
  9
$TDINDWG
 40
0.0000000116
  9
$TDUSRTIMER
 40
0.0000000116
  9
$USRTIMER
 70
     1
  9
$ANGBASE
 50
0.0
  9
$ANGDIR
 70
     0
  9
$PDMODE
 70
     0
  9
$PDSIZE
 40
-1.0
  9
$PLINEWID
 40
0.0
  9
$SPLFRAME
 70
     0
  9
$SPLINETYPE
 70
     6
  9
$SPLINESEGS
 70
     8
  9
$HANDSEED
  5
78
  9
$SURFTAB1
 70
     6
  9
$SURFTAB2
 70
     6
  9
$SURFTYPE
 70
     6
  9
$SURFU
 70
     6
  9
$SURFV
 70
     6
  9
$UCSBASE
  2

  9
$UCSNAME
  2

  9
$UCSORG
 10
0.0
 20
0.0
 30
0.0
  9
$UCSXDIR
 10
1.0
 20
0.0
 30
0.0
  9
$UCSYDIR
 10
0.0
 20
1.0
 30
0.0
  9
$UCSORTHOREF
  2

  9
$UCSORTHOVIEW
 70
     0
  9
$UCSORGTOP
 10
0.0
 20
0.0
 30
0.0
  9
$UCSORGBOTTOM
 10
0.0
 20
0.0
 30
0.0
  9
$UCSORGLEFT
 10
0.0
 20
0.0
 30
0.0
  9
$UCSORGRIGHT
 10
0.0
 20
0.0
 30
0.0
  9
$UCSORGFRONT
 10
0.0
 20
0.0
 30
0.0
  9
$UCSORGBACK
 10
0.0
 20
0.0
 30
0.0
  9
$PUCSBASE
  2

  9
$PUCSNAME
  2

  9
$PUCSORG
 10
0.0
 20
0.0
 30
0.0
  9
$PUCSXDIR
 10
1.0
 20
0.0
 30
0.0
  9
$PUCSYDIR
 10
0.0
 20
1.0
 30
0.0
  9
$PUCSORTHOREF
  2

  9
$PUCSORTHOVIEW
 70
     0
  9
$PUCSORGTOP
 10
0.0
 20
0.0
 30
0.0
  9
$PUCSORGBOTTOM
 10
0.0
 20
0.0
 30
0.0
  9
$PUCSORGLEFT
 10
0.0
 20
0.0
 30
0.0
  9
$PUCSORGRIGHT
 10
0.0
 20
0.0
 30
0.0
  9
$PUCSORGFRONT
 10
0.0
 20
0.0
 30
0.0
  9
$PUCSORGBACK
 10
0.0
 20
0.0
 30
0.0
  9
$USERI1
 70
     0
  9
$USERI2
 70
     0
  9
$USERI3
 70
     0
  9
$USERI4
 70
     0
  9
$USERI5
 70
     0
  9
$USERR1
 40
0.0
  9
$USERR2
 40
0.0
  9
$USERR3
 40
0.0
  9
$USERR4
 40
0.0
  9
$USERR5
 40
0.0
  9
$WORLDVIEW
 70
     1
  9
$SHADEDGE
 70
     3
  9
$SHADEDIF
 70
    70
  9
$TILEMODE
 70
     1
  9
$MAXACTVP
 70
    64
  9
$PINSBASE
 10
0.0
 20
0.0
 30
0.0
  9
$PLIMCHECK
 70
     0
  9
$PEXTMIN
 10
1.0000000000E+20
 20
1.0000000000E+20
 30
1.0000000000E+20
  9
$PEXTMAX
 10
-1.0000000000E+20
 20
-1.0000000000E+20
 30
-1.0000000000E+20
  9
$PLIMMIN
 10
0.0
 20
0.0
  9
$PLIMMAX
 10
420.0
 20
297.0
  9
$UNITMODE
 70
     0
  9
$VISRETAIN
 70
     1
  9
$PLINEGEN
 70
     0
  9
$PSLTSCALE
 70
     1
  9
$TREEDEPTH
 70
  3020
  9
$CMLSTYLE
  2
Standard
  9
$CMLJUST
 70
     0
  9
$CMLSCALE
 40
20.0
  9
$PROXYGRAPHICS
 70
     1
  9
$MEASUREMENT
 70
     1
  9
$CELWEIGHT
370
    -1
  9
$ENDCAPS
280
     0
  9
$JOINSTYLE
280
     0
  9
$LWDISPLAY
290
     1
  9
$INSUNITS
 70
     4
  9
$HYPERLINKBASE
  1

  9
$STYLESHEET
  1

  9
$XEDIT
290
     1
  9
$CEPSNTYPE
380
     0
  9
$PSTYLEMODE
290
     1
  9
$FINGERPRINTGUID
  2
{8f3f1c06-73db-4102-a811-5a53c1c85fa9}
  9
$VERSIONGUID
  2
{FAEB1C32-E019-11D5-929B-00C0DF256EC4}
  9
$EXTNAMES
290
     1
  9
$PSVPSCALE
 40
0.0
  9
$OLESTARTUP
290
     0
  0
ENDSEC
  0
SECTION
  2
CLASSES
  0
CLASS
  1
ACDBDICTIONARYWDFLT
  2
AcDbDictionaryWithDefault
  3
ObjectDBX Classes
 90
        0
280
     0
281
     0
  0
CLASS
  1
VISUALSTYLE
  2
AcDbVisualStyle
  3
ObjectDBX Classes
 90
     4095
280
     0
281
     0
  0
CLASS
  1
MATERIAL
  2
AcDbMaterial
  3
ObjectDBX Classes
 90
     1153
280
     0
281
     0
  0
CLASS
  1
SCALE
  2
AcDbScale
  3
ObjectDBX Classes
 90
     1153
280
     0
281
     0
  0
CLASS
  1
TABLESTYLE
  2
AcDbTableStyle
  3
ObjectDBX Classes
 90
     4095
280
     0
281
     0
  0
CLASS
  1
MLEADERSTYLE
  2
AcDbMLeaderStyle
  3
ACDB_MLEADERSTYLE_CLASS
 90
     4095
280
     0
281
     0
  0
CLASS
  1
SUN
  2
AcDbSun
  3
SCENEOE
 90
     1153
280
     0
281
     0
  0
CLASS
  1
ACDBPLACEHOLDER
  2
AcDbPlaceHolder
  3
ObjectDBX Classes
 90
        0
280
     0
281
     0
  0
CLASS
  1
LAYOUT
  2
AcDbLayout
  3
ObjectDBX Classes
 90
        0
280
     0
281
     0
  0
ENDSEC
  0
SECTION
  2
TABLES
  0
TABLE
  2
VPORT
  5
8
330
0
100
AcDbSymbolTable
 70
     1
  0
VPORT
  5
29
330
8
100
AcDbSymbolTableRecord
100
AcDbViewportTableRecord
  2
*Active
 70
     0
 10
0.0
 20
0.0
 11
1.0
 21
1.0
 12
2.0767228283
 22
1.6264890917
 13
0.0
 23
0.0
 14
10.0
 24
10.0
 15
10.0
 25
10.0
 16
0.0
 26
0.0
 36
1.0
 17
0.0
 27
0.0
 37
0.0
 40
112.2696225421
 41
0.8902322014
 42
50.0
 43
0.0
 44
0.0
 50
0.0
 51
0.0
 71
     0
 72
   100
 73
     1
 74
     3
 75
     0
 76
     0
 77
     0
 78
     0
281
     0
 65
     1
110
0.0
120
0.0
130
0.0
111
1.0
121
0.0
131
0.0
112
0.0
122
1.0
132
0.0
 79
     0
146
0.0
  0
ENDTAB
  0
TABLE
  2
LTYPE
  5
5
330
0
100
AcDbSymbolTable
 70
     6
  0
LTYPE
  5
14
330
5
100
AcDbSymbolTableRecord
100
AcDbLinetypeTableRecord
  2
ByBlock
 70
     0
  3

 72
    65
 73
     0
 40
0.0
  0
LTYPE
  5
15
330
5
100
AcDbSymbolTableRecord
100
AcDbLinetypeTableRecord
  2
ByLayer
 70
     0
  3

 72
    65
 73
     0
 40
0.0
  0
LTYPE
  5
16
330
5
100
AcDbSymbolTableRecord
100
AcDbLinetypeTableRecord
  2
Continuous
 70
     0
  3
Solid line
 72
    65
 73
     0
 40
0.0
  0
LTYPE
  5
6E
330
5
100
AcDbSymbolTableRecord
100
AcDbLinetypeTableRecord
  2
HIDDEN
 70
     0
  3
Hidden __ __ __ __ __ __ __ __ __ __ __ __ __ __
 72
    65
 73
     2
 40
1.905
 49
1.27
 74
     0
 49
-0.635
 74
     0
  0
LTYPE
  5
6F
330
5
100
AcDbSymbolTableRecord
100
AcDbLinetypeTableRecord
  2
PHANTOM
 70
     0
  3
Phantom ______  __  __  ______  __  __  ______
 72
    65
 73
     6
 40
12.7
 49
6.35
 74
     0
 49
-1.27
 74
     0
 49
1.27
 74
     0
 49
-1.27
 74
     0
 49
1.27
 74
     0
 49
-1.27
 74
     0
  0
LTYPE
  5
70
330
5
100
AcDbSymbolTableRecord
100
AcDbLinetypeTableRecord
  2
CENTER
 70
     0
  3
Center ____ _ ____ _ ____ _ ____ _ ____ _ ____
 72
    65
 73
     4
 40
10.16
 49
6.35
 74
     0
 49
-1.27
 74
     0
 49
1.27
 74
     0
 49
-1.27
 74
     0
  0
LTYPE
  5
71
330
5
100
AcDbSymbolTableRecord
100
AcDbLinetypeTableRecord
  2
CENTERX2
 70
     0
  3
Center (2x) ________  __  ________  __  _____
 72
    65
 73
     4
 40
20.32
 49
12.7
 74
     0
 49
-2.54
 74
     0
 49
2.54
 74
     0
 49
-2.54
 74
     0
  0
LTYPE
  5
72
330
5
100
AcDbSymbolTableRecord
100
AcDbLinetypeTableRecord
  2
DOT2
 70
     0
  3
Dot (.5x) ........................................
 72
    65
 73
     2
 40
0.635
 49
0.0
 74
     0
 49
-0.635
 74
     0
  0
ENDTAB
  0
TABLE
  2
LAYER
  5
2
330
0
100
AcDbSymbolTable
 70
     1
  0
LAYER
  5
10
330
2
100
AcDbSymbolTableRecord
100
AcDbLayerTableRecord
  2
0
 70
     0
 62
     7
  6
Continuous
370
    -3
390
F
  0
ENDTAB
  0
TABLE
  2
STYLE
  5
3
330
0
100
AcDbSymbolTable
 70
     2
  0
STYLE
  5
11
330
3
100
AcDbSymbolTableRecord
100
AcDbTextStyleTableRecord
  2
Standard
 70
     0
 40
0.0
 41
1.0
 50
0.0
 71
     0
 42
3.5
  3
txt
  4

  0
STYLE
  5
75
330
3
100
AcDbSymbolTableRecord
100
AcDbTextStyleTableRecord
  2
SLDTEXTSTYLE0
 70
     0
 40
0.0
 41
0.7
 50
0.0
 71
     0
 42
3.5
  3
TXT
  4
bigfont
  0
ENDTAB
  0
TABLE
  2
VIEW
  5
6
330
0
100
AcDbSymbolTable
 70
     0
  0
ENDTAB
  0
TABLE
  2
UCS
  5
7
330
0
100
AcDbSymbolTable
 70
     0
  0
ENDTAB
  0
TABLE
  2
APPID
  5
9
330
0
100
AcDbSymbolTable
 70
     1
  0
APPID
  5
12
330
9
100
AcDbSymbolTableRecord
100
AcDbRegAppTableRecord
  2
ACAD
 70
     0
  0
ENDTAB
  0
TABLE
  2
DIMSTYLE
  5
A
330
0
100
AcDbSymbolTable
 70
     1
100
AcDbDimStyleTable
  0
DIMSTYLE
105
27
330
A
100
AcDbSymbolTableRecord
100
AcDbDimStyleTableRecord
  2
ISO-25
 70
     0
 41
2.5
 42
0.625
 43
3.75
 44
1.25
 73
     0
 74
     0
 77
     1
 78
     8
140
2.5
141
2.5
143
0.0393700787
147
0.625
171
     3
172
     1
178
     0
271
     2
272
     2
274
     3
278
    44
283
     0
284
     8
340
11
  0
ENDTAB
  0
TABLE
  2
BLOCK_RECORD
  5
1
330
0
100
AcDbSymbolTable
 70
     1
  0
BLOCK_RECORD
  5
1F
330
1
100
AcDbSymbolTableRecord
100
AcDbBlockTableRecord
  2
*Model_Space
340
22
  0
BLOCK_RECORD
  5
1B
330
1
100
AcDbSymbolTableRecord
100
AcDbBlockTableRecord
  2
*Paper_Space
340
1E
  0
BLOCK_RECORD
  5
23
330
1
100
AcDbSymbolTableRecord
100
AcDbBlockTableRecord
  2
*Paper_Space0
340
26
  0
ENDTAB
  0
ENDSEC
  0
SECTION
  2
BLOCKS
  0
BLOCK
  5
20
330
1F
100
AcDbEntity
  8
0
100
AcDbBlockBegin
  2
*Model_Space
 70
     0
 10
0.0
 20
0.0
 30
0.0
  3
*Model_Space
  1

  0
ENDBLK
  5
21
330
1F
100
AcDbEntity
  8
0
100
AcDbBlockEnd
  0
BLOCK
  5
1C
330
1B
100
AcDbEntity
 67
     1
  8
0
100
AcDbBlockBegin
  2
*Paper_Space
 70
     0
 10
0.0
 20
0.0
 30
0.0
  3
*Paper_Space
  1

  0
ENDBLK
  5
1D
330
1B
100
AcDbEntity
 67
     1
  8
0
100
AcDbBlockEnd
  0
BLOCK
  5
24
330
23
100
AcDbEntity
  8
0
100
AcDbBlockBegin
  2
*Paper_Space0
 70
     0
 10
0.0
 20
0.0
 30
0.0
  3
*Paper_Space0
  1

  0
ENDBLK
  5
25
330
23
100
AcDbEntity
  8
0
100
AcDbBlockEnd
  0
ENDSEC
  0
SECTION
  2
ENTITIES
  0
SPLINE
  5
73
330
1F
100
AcDbEntity
  8
0
  6
Continuous
 62
     7
370
    25
100
AcDbSpline
210
0.0
220
0.0
230
1.0
 70
    11
 71
     3
 72
    50
 73
    46
 74
     0
 42
0.00000001
 43
0.00000001
 40
0.0
 40
0.0
 40
0.0
 40
0.0
 40
1.0
 40
1.0
 40
1.0
 40
2.0
 40
2.0
 40
2.0
 40
3.0
 40
3.0
 40
3.0
 40
4.0
 40
4.0
 40
4.0
 40
5.0
 40
5.0
 40
5.0
 40
6.0
 40
6.0
 40
6.0
 40
7.0
 40
7.0
 40
7.0
 40
8.0
 40
8.0
 40
8.0
 40
9.0
 40
9.0
 40
9.0
 40
10.0
 40
10.0
 40
10.0
 40
11.0
 40
11.0
 40
11.0
 40
12.0
 40
12.0
 40
12.0
 40
13.0
 40
13.0
 40
13.0
 40
14.0
 40
14.0
 40
14.0
 40
15.0
 40
15.0
 40
15.0
 40
15.0
 10
49.88472174313761
 20
0.7816972660809246
 30
0.0
 10
49.7795305469985
 20
2.422028551179998
 30
0.0
 10
49.43109642736157
 20
7.856015051216895
 30
0.0
 10
49.20640219189658
 20
11.39331101457452
 30
0.0
 10
48.98170795643158
 20
14.93060697793215
 30
0.0
 10
48.84648383751902
 20
18.28646556452029
 30
0.0
 10
48.53039727046212
 20
22.00502367988827
 30
0.0
 10
47.89822413634834
 20
29.44213991062425
 30
0.0
 10
43.74404870018982
 20
35.35876208773616
 30
0.0
 10
38.88621808995692
 20
40.5184959166656
 30
0.0
 10
29.17055686949109
 20
50.83796357452449
 30
0.0
 10
15.06063909954212
 20
56.81856890182273
 30
0.0
 10
0.8297805560011663
 20
56.65756196272875
 30
0.0
 10
-13.40107798753979
 20
56.49655502363477
 30
0.0
 10
-27.34290185848158
 20
50.23533720447041
 30
0.0
 10
-36.84828997689084
 20
39.65391781191972
 30
0.0
 10
-41.60098403609547
 20
34.36320811564437
 30
0.0
 10
-45.64565118681256
 20
28.14178967464353
 30
0.0
 10
-46.4999164096914
 20
21.05588752659026
 30
0.0
 10
-47.35418163257023
 20
13.96998537853698
 30
0.0
 10
-46.64595446040557
 20
7.0188012728896
 30
0.0
 10
-46.6476298403762
 20
-0.2049429482917516
 30
0.0
 10
-46.64930522034682
 20
-7.428687169473102
 30
0.0
 10
-47.39312615870879
 20
-14.63946375901448
 30
0.0
 10
-46.42425735699038
 20
-21.46196103964219
 30
0.0
 10
-45.45538855527194
 20
-28.28445832026991
 30
0.0
 10
-41.22429144116905
 20
-34.67530106539915
 30
0.0
 10
-36.32010657057474
 20
-39.80930305153691
 30
0.0
 10
-31.41592169998044
 20
-44.94330503767467
 30
0.0
 10
-25.69894152497865
 20
-48.92271385918918
 30
0.0
 10
-18.76692288066885
 20
-51.50980994599675
 30
0.0
 10
-11.83490423635904
 20
-54.09690603280433
 30
0.0
 10
-4.828428670403822
 20
-53.37248105250518
 30
0.0
 10
2.257097398334984
 20
-53.1549869748829
 30
0.0
 10
9.34262346707379
 20
-52.93749289726062
 30
0.0
 10
17.09260118883629
 20
-53.26400253585039
 30
0.0
 10
23.29178703120091
 20
-50.92670180533953
 30
0.0
 10
29.49097287356554
 20
-48.58940107482867
 30
0.0
 10
35.82187946314882
 20
-44.11751308999025
 30
0.0
 10
40.60680465207427
 20
-38.88777851607136
 30
0.0
 10
45.39172984099972
 20
-33.65804394215247
 30
0.0
 10
49.42154632563585
 20
-27.56483490285331
 30
0.0
 10
50.63147395338824
 20
-20.43438888013289
 30
0.0
 10
51.84140158114062
 20
-13.30394285741247
 30
0.0
 10
50.22910687057275
 20
-4.588578188414832
 30
0.0
 10
49.88472174313761
 20
0.7816972660809246
 30
0.0
  0
SPLINE
  5
74
330
1F
100
AcDbEntity
  8
0
  6
Continuous
 62
     7
370
    25
100
AcDbSpline
210
0.0
220
0.0
230
1.0
 70
    11
 71
     3
 72
   198
 73
   194
 74
     0
 42
0.00000001
 43
0.00000001
 40
0.0
 40
0.0
 40
0.0
 40
0.0
 40
0.0089288675198554
 40
0.0133933013588973
 40
0.0178577352132503
 40
0.0312510372681007
 40
0.0351574145369549
 40
0.0390637941783147
 40
0.0429701844222824
 40
0.0468765512317267
 40
0.0488297183327089
 40
0.0507828971240526
 40
0.0546893797514481
 40
0.0566426406191306
 40
0.0585958011433379
 40
0.060548778626835
 40
0.0615252156518627
 40
0.0625016676755327
 40
0.0644547795933391
 40
0.0664084625784635
 40
0.0683627935253862
 40
0.0703167432577333
 40
0.0722697875839318
 40
0.0742227260952865
 40
0.0781306300412565
 40
0.0800854068254608
 40
0.0820396182004539
 40
0.0859466247826193
 40
0.0937583989123742
 40
0.1015704373664053
 40
0.1093827682888406
 40
0.1132894583525173
 40
0.1171960529946309
 40
0.1211026867790938
 40
0.1250092713020367
 40
0.1328217754056307
 40
0.1406342962023808
 40
0.1484468225235518
 40
0.1562593383558758
 40
0.1640718737909883
 40
0.171884392346949
 40
0.1875041460604144
 40
0.2031238876917063
 40
0.218743710211678
 40
0.2265562445831419
 40
0.2343687793115409
 40
0.2421813119171699
 40
0.2499938434181997
 40
0.2578063649678806
 40
0.2656188815995378
 40
0.2734314123359196
 40
0.2812439452083645
 40
0.2890564785445909
 40
0.296869013456186
 40
0.3124888210243877
 40
0.3281085454015675
 40
0.3359210663203778
 40
0.3437335904388336
 40
0.3515461084530629
 40
0.3593586223191205
 40
0.3671711209142893
 40
0.374983617381999
 40
0.3906032554285501
 40
0.3984157316362779
 40
0.4062281843019706
 40
0.4140404759764635
 40
0.4218525282376734
 40
0.4296642435861993
 40
0.433571574904774
 40
0.4374790367209215
 40
0.4413867822338061
 40
0.445294134460075
 40
0.4472471963665589
 40
0.4492004702234418
 40
0.4501772672621523
 40
0.4511541060648966
 40
0.4521309098227645
 40
0.4531076270542411
 40
0.4570139390996206
 40
0.4609201767541807
 40
0.4687330025324377
 40
0.476545747798523
 40
0.4843585087467634
 40
0.4999840269687912
 40
0.5156095451075691
 40
0.5234223046214221
 40
0.5312350645493168
 40
0.5390478094976947
 40
0.542954185276306
 40
0.5449074172704799
 40
0.5468606617785449
 40
0.5507669481732224
 40
0.5546730030339665
 40
0.5566263767743088
 40
0.5585802080358729
 40
0.5605339839136065
 40
0.5624871776627699
 40
0.5644402180362168
 40
0.56639399116413
 40
0.570302254173291
 40
0.5781136503968648
 40
0.5859253926206274
 40
0.593737386645241
 40
0.6015496758917812
 40
0.6093620689419681
 40
0.6171745786401363
 40
0.624987064186839
 40
0.6327995397645519
 40
0.6406120170048659
 40
0.6562310152906506
 40
0.6614397002680779
 40
0.6718552882841402
 40
0.6796677305103752
 40
0.6835744068519789
 40
0.6874811190057497
 40
0.6913877556734803
 40
0.695294579276019
 40
0.7031066529073274
 40
0.7070135989974647
 40
0.7109210017987155
 40
0.7148281897064112
 40
0.716781731292843
 40
0.7187353921496605
 40
0.7226426081493941
 40
0.7245958412304492
 40
0.726549050866126
 40
0.7275256852844758
 40
0.7285023227887575
 40
0.7304555542289484
 40
0.7324087456065709
 40
0.7343619246354457
 40
0.7365941293336103
 40
0.7388263443808105
 40
0.7432907886952922
 40
0.7499874371216969
 40
0.7656129574529826
 40
0.7695193284890579
 40
0.7734256982469366
 40
0.7773321312676486
 40
0.781238493596025
 40
0.7831915684757615
 40
0.7851446506333486
 40
0.78709788125124
 40
0.7890514000283785
 40
0.7900282394581631
 40
0.7910050416552347
 40
0.7929583301113313
 40
0.7949113022016995
 40
0.796864667567958
 40
0.800772274709806
 40
0.8046796635015472
 40
0.8085866206693031
 40
0.812493631228229
 40
0.8203057475211468
 40
0.8281180085909957
 40
0.8320246306432695
 40
0.8359313258616133
 40
0.8437437689191506
 40
0.8593627261815395
 40
0.8671752035937946
 40
0.8749876809155241
 40
0.8828001613863237
 40
0.8906126469545784
 40
0.8984251181135974
 40
0.9062376023745179
 40
0.9140500543970943
 40
0.917956917426955
 40
0.9218636963398865
 40
0.925770664347974
 40
0.9296778785385733
 40
0.9335849282324817
 40
0.93749213708176
 40
0.9413997975769819
 40
0.9453075311619396
 40
0.9472613603353631
 40
0.9492152840548428
 40
0.9531229939459626
 40
0.9550763335310393
 40
0.9570295223987416
 40
0.9580061888705381
 40
0.9589828859071055
 40
0.9599595789803175
 40
0.9609362365945083
 40
0.9628894591231058
 40
0.9648426214397601
 40
0.9667957726108299
 40
0.9687489449973851
 40
0.9726553388336698
 40
0.9765617275495005
 40
0.9843744806939482
 40
0.9921872409792752
 40
0.9960936203137238
 40
1.0
 40
1.0
 40
1.0
 40
1.0
 10
47.9752089540643
 20
-0.774426940546368
 30
0.0
 10
47.91307220132379
 20
0.1988876414259659
 30
0.0
 10
47.82009957773902
 20
1.658874395843231
 30
0.0
 10
47.69686081543207
 20
3.605569359305683
 30
0.0
 10
47.54249110539794
 20
6.038917777314967
 30
0.0
 10
47.39183575469612
 20
8.411423036937562
 30
0.0
 10
47.24528578439379
 20
10.72311020055223
 30
0.0
 10
47.1643820275415
 20
12.00062790233643
 30
0.0
 10
47.08319910972556
 20
13.27812673280377
 30
0.0
 10
47.01584210331109
 20
14.34272536972204
 30
0.0
 10
46.96242459679828
 20
15.19443080244493
 30
0.0
 10
46.90896917720501
 20
16.04614656091868
 30
0.0
 10
46.854563845592
 20
16.89781267757929
 30
0.0
 10
46.79963441909799
 20
17.74944282455392
 30
0.0
 10
46.75911565161678
 20
18.38817866745621
 30
0.0
 10
46.72661590810751
 20
18.92050944043202
 30
0.0
 10
46.70131113365144
 20
19.34639432188909
 30
0.0
 10
46.676029744652
 20
19.7722951724107
 30
0.0
 10
46.64394375475247
 20
20.30472492945142
 30
0.0
 10
46.60276189954807
 20
20.94360859470214
 30
0.0
 10
46.55708471301725
 20
21.58229044759769
 30
0.0
 10
46.50098368088765
 20
22.22009826373859
 30
0.0
 10
46.42879321917196
 20
22.85620224184353
 30
0.0
 10
46.30207281028268
 20
23.70043012510038
 30
0.0
 10
46.12780449004088
 20
24.53697634069157
 30
0.0
 10
45.91494347891577
 20
25.36392854537556
 30
0.0
 10
45.67828187372665
 20
26.18433100415405
 30
0.0
 10
45.20285624110836
 20
27.60095775883729
 30
0.0
 10
44.35473485057144
 20
29.5630644249638
 30
0.0
 10
43.12209369992576
 20
31.81001267208245
 30
0.0
 10
41.95161916012449
 20
33.59592355341798
 30
0.0
 10
40.94853804987504
 20
34.97705295952313
 30
0.0
 10
40.16648565532758
 20
35.99079145429205
 30
0.0
 10
39.35769652224108
 20
36.98326800464224
 30
0.0
 10
38.24609338735846
 20
38.27864663999029
 30
0.0
 10
36.79322263561628
 20
39.84237221303751
 30
0.0
 10
34.95461501810976
 20
41.62541521901478
 30
0.0
 10
33.02571997051173
 20
43.31044523498396
 30
0.0
 10
31.0119218939441
 20
44.89297052101449
 30
0.0
 10
28.91897277703982
 20
46.36934262446609
 30
0.0
 10
26.0311117411332
 20
48.19042241824621
 30
0.0
 10
22.24918693964446
 20
50.18163398942822
 30
0.0
 10
17.48833504156765
 20
52.08518278181649
 30
0.0
 10
13.3762346730781
 20
53.25037085160449
 30
0.0
 10
10.0297101351741
 20
53.92603720884487
 30
0.0
 10
7.496618141765135
 20
54.30470481332235
 30
0.0
 10
4.947597934822991
 20
54.55391762422257
 30
0.0
 10
2.389127661212278
 20
54.67234698158968
 30
0.0
 10
-0.1720781004701264
 20
54.65797230567061
 30
0.0
 10
-2.728981378963465
 20
54.50888469791506
 30
0.0
 10
-5.274679349639716
 20
54.22743362587848
 30
0.0
 10
-7.802595185066156
 20
53.81601434035956
 30
0.0
 10
-10.30632973338457
 20
53.27635528056781
 30
0.0
 10
-13.60286990377409
 20
52.38821243147544
 30
0.0
 10
-17.63178427882278
 20
50.9624220589144
 30
0.0
 10
-21.49030832986373
 20
49.12439130746721
 30
0.0
 10
-24.44829952460187
 20
47.4195088507998
 30
0.0
 10
-26.59776043843983
 20
46.02666583071427
 30
0.0
 10
-28.67159466775155
 20
44.52365687480253
 30
0.0
 10
-30.66497213410899
 20
42.91549971074267
 30
0.0
 10
-32.57222586334082
 20
41.20592218091784
 30
0.0
 10
-34.99248892309417
 20
38.79810794309728
 30
0.0
 10
-37.2211021337713
 20
36.20346591917723
 30
0.0
 10
-39.23490786590241
 20
33.44677682346134
 30
0.0
 10
-40.63680129392301
 20
31.30294345951048
 30
0.0
 10
-41.89556366621052
 20
29.07127438477271
 30
0.0
 10
-42.97662580959047
 20
26.74751860730233
 30
0.0
 10
-43.69099082969387
 20
24.73286551240678
 30
0.0
 10
-44.12742519972601
 20
23.08191076653642
 30
0.0
 10
-44.38198822455463
 20
21.82616902692905
 30
0.0
 10
-44.55566554752286
 20
20.55667616571804
 30
0.0
 10
-44.63256699210308
 20
19.49170274022173
 30
0.0
 10
-44.65465741175492
 20
18.63842474625916
 30
0.0
 10
-44.65714892334779
 20
18.10502337896163
 30
0.0
 10
-44.65563541699122
 20
17.67827675330076
 30
0.0
 10
-44.65353555854989
 20
17.35819265950704
 30
0.0
 10
-44.65132281189178
 20
17.03811856680983
 30
0.0
 10
-44.64794448846691
 20
16.39806032119249
 30
0.0
 10
-44.64591670692021
 20
15.438012831254
 30
0.0
 10
-44.64508662359703
 20
13.73126103978746
 30
0.0
 10
-44.64561781117788
 20
11.59781052231548
 30
0.0
 10
-44.64605246210344
 20
9.037652751365307
 30
0.0
 10
-44.6467378562199
 20
5.624118162487942
 30
0.0
 10
-44.6476330610777
 20
1.357198165149807
 30
0.0
 10
-44.64775738818934
 20
-2.90972183751464
 30
0.0
 10
-44.64686128117827
 20
-6.323257845173599
 30
0.0
 10
-44.64539076560493
 20
-8.883407907985426
 30
0.0
 10
-44.64416015026809
 20
-11.016865852741
 30
0.0
 10
-44.64196617644939
 20
-12.51028894000602
 30
0.0
 10
-44.64047410853488
 20
-13.36368182240292
 30
0.0
 10
-44.63901419511422
 20
-14.21706484449679
 30
0.0
 10
-44.63817347643502
 20
-15.28375621067283
 30
0.0
 10
-44.6407517715914
 20
-16.35045840370983
 30
0.0
 10
-44.64265211951128
 20
-17.20389487137711
 30
0.0
 10
-44.64408245977899
 20
-17.84408541273126
 30
0.0
 10
-44.64095393479456
 20
-18.48426399395746
 30
0.0
 10
-44.62682525508622
 20
-19.1242447158812
 30
0.0
 10
-44.59521672357464
 20
-19.76366181923609
 30
0.0
 10
-44.52379200458466
 20
-20.61445983939984
 30
0.0
 10
-44.32571837527249
 20
-22.0958069315704
 30
0.0
 10
-43.8398510460917
 20
-24.1791189296381
 30
0.0
 10
-42.97640304668226
 20
-26.59383711413547
 30
0.0
 10
-41.88129915464542
 20
-28.91148919239328
 30
0.0
 10
-40.60121950931167
 20
-31.13118426666421
 30
0.0
 10
-39.17323942020598
 20
-33.25778911688064
 30
0.0
 10
-37.63245171951102
 20
-35.3037621664191
 30
0.0
 10
-35.98155550611992
 20
-37.26209809969382
 30
0.0
 10
-34.22531327129379
 20
-39.12666530250178
 30
0.0
 10
-31.7514043735992
 20
-41.47936237413786
 30
0.0
 10
-29.30779465550691
 20
-43.44531966657215
 30
0.0
 10
-26.49847647275726
 20
-45.38338402551084
 30
0.0
 10
-24.31172346633423
 20
-46.7196716683242
 30
0.0
 10
-22.17039911451842
 20
-47.84482216693718
 30
0.0
 10
-20.62819214687558
 20
-48.576539447536
 30
0.0
 10
-19.45647809622714
 20
-49.09270188699175
 30
0.0
 10
-18.26801790678454
 20
-49.5693863852104
 30
0.0
 10
-16.66131052736322
 20
-50.14588706338446
 30
0.0
 10
-15.02163652710369
 20
-50.62877759604318
 30
0.0
 10
-13.35406645471827
 20
-50.99548015287017
 30
0.0
 10
-12.09155541113937
 20
-51.21130113348619
 30
0.0
 10
-11.03163814353862
 20
-51.33845992327633
 30
0.0
 10
-10.18051365633642
 20
-51.40428561554042
 30
0.0
 10
-9.327905931018119
 20
-51.44655849815452
 30
0.0
 10
-8.474093855999284
 20
-51.4569732680907
 30
0.0
 10
-7.620726972866846
 20
-51.44208726668305
 30
0.0
 10
-7.087571388739327
 20
-51.42645209896548
 30
0.0
 10
-6.661097156837429
 20
-51.41250005586498
 30
0.0
 10
-6.234626992406034
 20
-51.39832308608718
 30
0.0
 10
-5.701496211538029
 20
-51.38215426314439
 30
0.0
 10
-5.061681040485517
 20
-51.36510584475661
 30
0.0
 10
-4.39138180509303
 20
-51.34815509644938
 30
0.0
 10
-3.690629054857716
 20
-51.3298554684733
 30
0.0
 10
-2.715719604711559
 20
-51.30239704643105
 30
0.0
 10
-1.253413307809443
 20
-51.25917829050181
 30
0.0
 10
1.67119731533434
 20
-51.17269634913031
 30
0.0
 10
4.534741243100969
 20
-51.08345248888722
 30
0.0
 10
7.093531951939219
 20
-51.00002892131354
 30
0.0
 10
8.372900792798879
 20
-50.95736813987872
 30
0.0
 10
9.652269514885997
 20
-50.91473921119867
 30
0.0
 10
10.71838099699299
 20
-50.87865788813286
 30
0.0
 10
11.57120012282122
 20
-50.8483371254699
 30
0.0
 10
12.21080711831469
 20
-50.825403231687
 30
0.0
 10
12.85047875505828
 20
-50.80290665937854
 30
0.0
 10
13.38362692058134
 20
-50.78549899853111
 30
0.0
 10
13.8101799651785
 20
-50.77165813904386
 30
0.0
 10
14.23666618882124
 20
-50.75658876028925
 30
0.0
 10
14.76956796736404
 20
-50.7337702031552
 30
0.0
 10
15.40845115084614
 20
-50.69411048359176
 30
0.0
 10
16.25858998596781
 20
-50.61715971261252
 30
0.0
 10
17.31692935028639
 20
-50.47726585122207
 30
0.0
 10
18.57642185182494
 20
-50.24400098817815
 30
0.0
 10
19.82263762660372
 20
-49.94813603284536
 30
0.0
 10
21.46286158881707
 20
-49.47397040294916
 30
0.0
 10
23.46964189404403
 20
-48.74143455980066
 30
0.0
 10
25.41065378363938
 20
-47.85151847548962
 30
0.0
 10
26.92493886583335
 20
-47.06366666663027
 30
0.0
 10
28.41568819847894
 20
-46.23204359755394
 30
0.0
 10
30.96356469471135
 20
-44.67241514447745
 30
0.0
 10
33.72225179177424
 20
-42.64912044885772
 30
0.0
 10
36.29896113032911
 20
-40.40942401964504
 30
0.0
 10
38.13668578548585
 20
-38.62510871583245
 30
0.0
 10
39.87329784004422
 20
-36.74241082702135
 30
0.0
 10
41.50428633703847
 20
-34.76746974388615
 30
0.0
 10
43.02369083612168
 20
-32.70540147376323
 30
0.0
 10
44.42870769431092
 20
-30.56404879523427
 30
0.0
 10
45.5041203101276
 20
-28.7198664956843
 30
0.0
 10
46.28836001737046
 20
-27.20347458174761
 30
0.0
 10
46.83157177570273
 20
-26.04378107521037
 30
0.0
 10
47.32418819607442
 20
-24.8616261739534
 30
0.0
 10
47.76327349414723
 20
-23.65847909337812
 30
0.0
 10
48.14314035721945
 20
-22.43520946004195
 30
0.0
 10
48.45691918524911
 20
-21.19319587772842
 30
0.0
 10
48.70019340062154
 20
-19.93536243788917
 30
0.0
 10
48.83952810610536
 20
-18.8766155523926
 30
0.0
 10
48.9083491525013
 20
-18.0255585078608
 30
0.0
 10
48.94786551392713
 20
-17.17265744915323
 30
0.0
 10
48.94715998011088
 20
-16.31844552799531
 30
0.0
 10
48.91182166082606
 20
-15.46558760103697
 30
0.0
 10
48.87959166797441
 20
-14.93315010449677
 30
0.0
 10
48.85081370456103
 20
-14.50741184884654
 30
0.0
 10
48.82846182195989
 20
-14.18814422048325
 30
0.0
 10
48.80606976625418
 20
-13.86888078692816
 30
0.0
 10
48.7772570071554
 20
-13.44314096880879
 30
0.0
 10
48.74312815045348
 20
-12.91086018440053
 30
0.0
 10
48.70382465550244
 20
-12.27203367213259
 30
0.0
 10
48.66492415478422
 20
-11.63318801295785
 30
0.0
 10
48.6119037068194
 20
-10.78145699120971
 30
0.0
 10
48.54414984832059
 20
-9.716880070717918
 30
0.0
 10
48.43622670024615
 20
-8.01352578681177
 30
0.0
 10
48.30137731552187
 20
-5.884331261836174
 30
0.0
 10
48.16559146041885
 20
-3.755197301461187
 30
0.0
 10
48.05682278013272
 20
-2.051898543218065
 30
0.0
 10
48.00239378440666
 20
-1.200252086111378
 30
0.0
 10
47.9752089540643
 20
-0.774426940546368
 30
0.0
  0
MTEXT
  5
76
330
1F
100
AcDbEntity
  8
0
  6
Continuous
 62
     7
100
AcDbMText
 10
-46.9164307139
 20
-54.4272059971
 30
0.0
 40
4.83362
 41
0.0
 71
     1
 72
     1
  1
Produit d'éducation SOLIDWORKS – A titre éducatif uniquement.
  7
SLDTEXTSTYLE0
 73
     1
 44
1.0
  0
ENDSEC
  0
SECTION
  2
OBJECTS
  0
DICTIONARY
  5
C
330
0
100
AcDbDictionary
281
     1
  3
ACAD_GROUP
350
D
  3
ACAD_LAYOUT
350
1A
  3
ACAD_MLINESTYLE
350
17
  3
ACAD_PLOTSETTINGS
350
19
  3
ACAD_PLOTSTYLENAME
350
E
  3
ACAD_SCALELIST
350
47
  3
DWGPROPS
350
77
  0
DICTIONARY
  5
D
102
{ACAD_REACTORS
330
C
102
}
330
C
100
AcDbDictionary
281
     1
  0
DICTIONARY
  5
1A
102
{ACAD_REACTORS
330
C
102
}
330
C
100
AcDbDictionary
281
     1
  3
Layout1
350
1E
  3
Layout2
350
26
  3
Model
350
22
  0
DICTIONARY
  5
17
102
{ACAD_REACTORS
330
C
102
}
330
C
100
AcDbDictionary
281
     1
  3
Standard
350
18
  0
DICTIONARY
  5
19
102
{ACAD_REACTORS
330
C
102
}
330
C
100
AcDbDictionary
281
     1
  0
ACDBDICTIONARYWDFLT
  5
E
102
{ACAD_REACTORS
330
C
102
}
330
C
100
AcDbDictionary
281
     1
  3
Normal
350
F
100
AcDbDictionaryWithDefault
340
F
  0
DICTIONARY
  5
47
102
{ACAD_REACTORS
330
C
102
}
330
C
100
AcDbDictionary
281
     1
  3
A0
350
48
  3
A1
350
49
  3
A2
350
4A
  3
A3
350
4B
  3
A4
350
4C
  3
A5
350
4D
  3
A6
350
4E
  3
A7
350
4F
  3
A8
350
50
  3
A9
350
51
  3
B0
350
52
  3
B1
350
53
  3
B2
350
54
  3
B3
350
55
  3
B4
350
56
  3
B5
350
57
  3
B6
350
58
  3
B7
350
59
  3
B8
350
5A
  3
B9
350
5B
  3
C0
350
5C
  3
C1
350
5D
  3
C2
350
5E
  3
C3
350
5F
  3
C4
350
60
  3
C5
350
61
  3
C6
350
62
  3
C7
350
63
  3
C8
350
64
  3
C9
350
65
  3
D0
350
66
  3
D1
350
67
  3
D2
350
68
  0
XRECORD
  5
77
102
{ACAD_REACTORS
330
C
102
}
330
C
100
AcDbXrecord
280
     1
  1
DWGPROPS COOKIE
  2

  3

  4

  6

  7

  8
agib3
  9

300
=
301
=
302
=
303
=
304
=
305
=
306
=
307
=
308
=
309
=
 40
0.0
 41
2459752.327718646
 42
2459752.327769884
  1

 90
        0
  0
LAYOUT
  5
1E
102
{ACAD_REACTORS
330
1A
102
}
330
1A
100
AcDbPlotSettings
  1

  2
none_device
  4

  6

 40
0.0
 41
0.0
 42
0.0
 43
0.0
 44
0.0
 45
0.0
 46
0.0
 47
0.0
 48
0.0
 49
0.0
140
0.0
141
0.0
142
1.0
143
1.0
 70
   688
 72
     1
 73
     0
 74
     5
  7

 75
    16
147
1.0
148
0.0
149
0.0
100
AcDbLayout
  1
Layout1
 70
     1
 71
     1
 10
0.0
 20
0.0
 11
420.0
 21
297.0
 12
0.0
 22
0.0
 32
0.0
 14
1.0000000000E+20
 24
1.0000000000E+20
 34
1.0000000000E+20
 15
-1.0000000000E+20
 25
-1.0000000000E+20
 35
-1.0000000000E+20
146
0.0
 13
0.0
 23
0.0
 33
0.0
 16
1.0
 26
0.0
 36
0.0
 17
0.0
 27
1.0
 37
0.0
 76
     0
330
1B
  0
LAYOUT
  5
26
102
{ACAD_REACTORS
330
1A
102
}
330
1A
100
AcDbPlotSettings
  1

  2
none_device
  4

  6

 40
0.0
 41
0.0
 42
0.0
 43
0.0
 44
0.0
 45
0.0
 46
0.0
 47
0.0
 48
0.0
 49
0.0
140
0.0
141
0.0
142
1.0
143
1.0
 70
   688
 72
     1
 73
     0
 74
     5
  7

 75
    16
147
1.0
148
0.0
149
0.0
100
AcDbLayout
  1
Layout2
 70
     1
 71
     2
 10
0.0
 20
0.0
 11
0.0
 21
0.0
 12
0.0
 22
0.0
 32
0.0
 14
0.0
 24
0.0
 34
0.0
 15
0.0
 25
0.0
 35
0.0
146
0.0
 13
0.0
 23
0.0
 33
0.0
 16
1.0
 26
0.0
 36
0.0
 17
0.0
 27
1.0
 37
0.0
 76
     0
330
23
  0
LAYOUT
  5
22
102
{ACAD_REACTORS
330
1A
102
}
330
1A
100
AcDbPlotSettings
  1

  2
none_device
  4
ANSI_A_(11.00_x_8.50_Inches)
  6

 40
6.35
 41
19.05
 42
6.35000508
 43
19.05000254
 44
279.4
 45
215.9
 46
129.3172197586
 47
85.741527676
 48
0.0
 49
0.0
140
0.0
141
0.0
142
0.0764525595
143
1.0
 70
  1696
 72
     0
 73
     0
 74
     0
  7

 75
     0
147
0.0179189148
148
-1300.4909072572
149
0.0
100
AcDbLayout
  1
Model
 70
     1
 71
     0
 10
0.0
 20
0.0
 11
420.0
 21
297.0
 12
0.0
 22
0.0
 32
0.0
 14
-46.9164307139
 24
-53.4076396054
 34
0.0
 15
51.0698763705
 25
56.6606177888
 35
0.0
146
0.0
 13
0.0
 23
0.0
 33
0.0
 16
1.0
 26
0.0
 36
0.0
 17
0.0
 27
1.0
 37
0.0
 76
     0
330
1F
331
29
  0
MLINESTYLE
  5
18
102
{ACAD_REACTORS
330
17
102
}
330
17
100
AcDbMlineStyle
  2
Standard
 70
     0
  3

 62
   256
 51
90.0
 52
90.0
 71
     2
 49
0.5
 62
   256
  6
BYLAYER
 49
-0.5
 62
   256
  6
BYLAYER
  0
ACDBPLACEHOLDER
  5
F
102
{ACAD_REACTORS
330
E
102
}
330
E
  0
SCALE
  5
48
102
{ACAD_REACTORS
330
47
102
}
330
47
100
AcDbScale
 70
     0
300
1:1
140
1.0
141
1.0
290
     1
  0
SCALE
  5
49
102
{ACAD_REACTORS
330
47
102
}
330
47
100
AcDbScale
 70
     0
300
1:2
140
1.0
141
2.0
290
     0
  0
SCALE
  5
4A
102
{ACAD_REACTORS
330
47
102
}
330
47
100
AcDbScale
 70
     0
300
1:4
140
1.0
141
4.0
290
     0
  0
SCALE
  5
4B
102
{ACAD_REACTORS
330
47
102
}
330
47
100
AcDbScale
 70
     0
300
1:5
140
1.0
141
5.0
290
     0
  0
SCALE
  5
4C
102
{ACAD_REACTORS
330
47
102
}
330
47
100
AcDbScale
 70
     0
300
1:8
140
1.0
141
8.0
290
     0
  0
SCALE
  5
4D
102
{ACAD_REACTORS
330
47
102
}
330
47
100
AcDbScale
 70
     0
300
1:10
140
1.0
141
10.0
290
     0
  0
SCALE
  5
4E
102
{ACAD_REACTORS
330
47
102
}
330
47
100
AcDbScale
 70
     0
300
1:16
140
1.0
141
16.0
290
     0
  0
SCALE
  5
4F
102
{ACAD_REACTORS
330
47
102
}
330
47
100
AcDbScale
 70
     0
300
1:20
140
1.0
141
20.0
290
     0
  0
SCALE
  5
50
102
{ACAD_REACTORS
330
47
102
}
330
47
100
AcDbScale
 70
     0
300
1:30
140
1.0
141
30.0
290
     0
  0
SCALE
  5
51
102
{ACAD_REACTORS
330
47
102
}
330
47
100
AcDbScale
 70
     0
300
1:40
140
1.0
141
40.0
290
     0
  0
SCALE
  5
52
102
{ACAD_REACTORS
330
47
102
}
330
47
100
AcDbScale
 70
     0
300
1:50
140
1.0
141
50.0
290
     0
  0
SCALE
  5
53
102
{ACAD_REACTORS
330
47
102
}
330
47
100
AcDbScale
 70
     0
300
1:100
140
1.0
141
100.0
290
     0
  0
SCALE
  5
54
102
{ACAD_REACTORS
330
47
102
}
330
47
100
AcDbScale
 70
     0
300
2:1
140
2.0
141
1.0
290
     0
  0
SCALE
  5
55
102
{ACAD_REACTORS
330
47
102
}
330
47
100
AcDbScale
 70
     0
300
4:1
140
4.0
141
1.0
290
     0
  0
SCALE
  5
56
102
{ACAD_REACTORS
330
47
102
}
330
47
100
AcDbScale
 70
     0
300
8:1
140
8.0
141
1.0
290
     0
  0
SCALE
  5
57
102
{ACAD_REACTORS
330
47
102
}
330
47
100
AcDbScale
 70
     0
300
10:1
140
10.0
141
1.0
290
     0
  0
SCALE
  5
58
102
{ACAD_REACTORS
330
47
102
}
330
47
100
AcDbScale
 70
     0
300
100:1
140
100.0
141
1.0
290
     0
  0
SCALE
  5
59
102
{ACAD_REACTORS
330
47
102
}
330
47
100
AcDbScale
 70
     0
300
1/128" = 1'-0"
140
0.0078125
141
12.0
290
     0
  0
SCALE
  5
5A
102
{ACAD_REACTORS
330
47
102
}
330
47
100
AcDbScale
 70
     0
300
1/64" = 1'-0"
140
0.015625
141
12.0
290
     0
  0
SCALE
  5
5B
102
{ACAD_REACTORS
330
47
102
}
330
47
100
AcDbScale
 70
     0
300
1/32" = 1'-0"
140
0.03125
141
12.0
290
     0
  0
SCALE
  5
5C
102
{ACAD_REACTORS
330
47
102
}
330
47
100
AcDbScale
 70
     0
300
1/16" = 1'-0"
140
0.0625
141
12.0
290
     0
  0
SCALE
  5
5D
102
{ACAD_REACTORS
330
47
102
}
330
47
100
AcDbScale
 70
     0
300
3/32" = 1'-0"
140
0.09375
141
12.0
290
     0
  0
SCALE
  5
5E
102
{ACAD_REACTORS
330
47
102
}
330
47
100
AcDbScale
 70
     0
300
1/8" = 1'-0"
140
0.125
141
12.0
290
     0
  0
SCALE
  5
5F
102
{ACAD_REACTORS
330
47
102
}
330
47
100
AcDbScale
 70
     0
300
3/16" = 1'-0"
140
0.1875
141
12.0
290
     0
  0
SCALE
  5
60
102
{ACAD_REACTORS
330
47
102
}
330
47
100
AcDbScale
 70
     0
300
1/4" = 1'-0"
140
0.25
141
12.0
290
     0
  0
SCALE
  5
61
102
{ACAD_REACTORS
330
47
102
}
330
47
100
AcDbScale
 70
     0
300
3/8" = 1'-0"
140
0.375
141
12.0
290
     0
  0
SCALE
  5
62
102
{ACAD_REACTORS
330
47
102
}
330
47
100
AcDbScale
 70
     0
300
1/2" = 1'-0"
140
0.5
141
12.0
290
     0
  0
SCALE
  5
63
102
{ACAD_REACTORS
330
47
102
}
330
47
100
AcDbScale
 70
     0
300
3/4" = 1'-0"
140
0.75
141
12.0
290
     0
  0
SCALE
  5
64
102
{ACAD_REACTORS
330
47
102
}
330
47
100
AcDbScale
 70
     0
300
1" = 1'-0"
140
1.0
141
12.0
290
     0
  0
SCALE
  5
65
102
{ACAD_REACTORS
330
47
102
}
330
47
100
AcDbScale
 70
     0
300
1-1/2" = 1'-0"
140
1.5
141
12.0
290
     0
  0
SCALE
  5
66
102
{ACAD_REACTORS
330
47
102
}
330
47
100
AcDbScale
 70
     0
300
3" = 1'-0"
140
3.0
141
12.0
290
     0
  0
SCALE
  5
67
102
{ACAD_REACTORS
330
47
102
}
330
47
100
AcDbScale
 70
     0
300
6" = 1'-0"
140
6.0
141
12.0
290
     0
  0
SCALE
  5
68
102
{ACAD_REACTORS
330
47
102
}
330
47
100
AcDbScale
 70
     0
300
1'-0" = 1'-0"
140
12.0
141
12.0
290
     0
  0
ENDSEC
  0
EOF
