G04 #@! TF.GenerationSoftware,KiCad,Pcbnew,6.0.4-6f826c9f35~116~ubuntu18.04.1*
G04 #@! TF.CreationDate,2022-05-30T12:34:47+02:00*
G04 #@! TF.ProjectId,Micro_43432,4d696372-6f5f-4343-9334-33322e6b6963,rev?*
G04 #@! TF.SameCoordinates,Original*
G04 #@! TF.FileFunction,Copper,L1,Top*
G04 #@! TF.FilePolarity,Positive*
%FSLAX46Y46*%
G04 Gerber Fmt 4.6, Leading zero omitted, Abs format (unit mm)*
G04 Created by KiCad (PCBNEW 6.0.4-6f826c9f35~116~ubuntu18.04.1) date 2022-05-30 12:34:47*
%MOMM*%
%LPD*%
G01*
G04 APERTURE LIST*
G04 Aperture macros list*
%AMRoundRect*
0 Rectangle with rounded corners*
0 $1 Rounding radius*
0 $2 $3 $4 $5 $6 $7 $8 $9 X,Y pos of 4 corners*
0 Add a 4 corners polygon primitive as box body*
4,1,4,$2,$3,$4,$5,$6,$7,$8,$9,$2,$3,0*
0 Add four circle primitives for the rounded corners*
1,1,$1+$1,$2,$3*
1,1,$1+$1,$4,$5*
1,1,$1+$1,$6,$7*
1,1,$1+$1,$8,$9*
0 Add four rect primitives between the rounded corners*
20,1,$1+$1,$2,$3,$4,$5,0*
20,1,$1+$1,$4,$5,$6,$7,0*
20,1,$1+$1,$6,$7,$8,$9,0*
20,1,$1+$1,$8,$9,$2,$3,0*%
G04 Aperture macros list end*
G04 #@! TA.AperFunction,EtchedComponent*
%ADD10C,0.300000*%
G04 #@! TD*
G04 #@! TA.AperFunction,SMDPad,CuDef*
%ADD11R,0.400000X0.600000*%
G04 #@! TD*
G04 #@! TA.AperFunction,SMDPad,CuDef*
%ADD12R,0.900001X0.833312*%
G04 #@! TD*
G04 #@! TA.AperFunction,SMDPad,CuDef*
%ADD13RoundRect,0.075000X-0.075000X0.125000X-0.075000X-0.125000X0.075000X-0.125000X0.075000X0.125000X0*%
G04 #@! TD*
G04 #@! TA.AperFunction,SMDPad,CuDef*
%ADD14RoundRect,0.140000X0.140000X0.170000X-0.140000X0.170000X-0.140000X-0.170000X0.140000X-0.170000X0*%
G04 #@! TD*
G04 #@! TA.AperFunction,SMDPad,CuDef*
%ADD15R,0.700000X1.800000*%
G04 #@! TD*
G04 #@! TA.AperFunction,SMDPad,CuDef*
%ADD16R,1.600000X2.200000*%
G04 #@! TD*
G04 #@! TA.AperFunction,SMDPad,CuDef*
%ADD17RoundRect,0.075000X-0.125000X-0.075000X0.125000X-0.075000X0.125000X0.075000X-0.125000X0.075000X0*%
G04 #@! TD*
G04 #@! TA.AperFunction,ViaPad*
%ADD18C,0.800000*%
G04 #@! TD*
G04 #@! TA.AperFunction,Conductor*
%ADD19C,0.200000*%
G04 #@! TD*
G04 #@! TA.AperFunction,Conductor*
%ADD20C,0.250000*%
G04 #@! TD*
G04 APERTURE END LIST*
D10*
X135165000Y-69062500D02*
G75*
G03*
X135165000Y-69062500I-670000J0D01*
G01*
D11*
X137075000Y-67987500D03*
X136425000Y-67987500D03*
X135775000Y-67987500D03*
D12*
X134475000Y-68070844D03*
D11*
X135775000Y-70137500D03*
X136425000Y-70137500D03*
X137075000Y-70137500D03*
D13*
X138100000Y-68750000D03*
X138100000Y-69250000D03*
D14*
X135680000Y-66800000D03*
X134720000Y-66800000D03*
D15*
X131375000Y-72300000D03*
X132625000Y-72300000D03*
X133875000Y-72300000D03*
X135125000Y-72300000D03*
X136375000Y-72300000D03*
X137625000Y-72300000D03*
D16*
X139875000Y-75000000D03*
X129125000Y-75000000D03*
D17*
X138050000Y-70500000D03*
X138550000Y-70500000D03*
D13*
X138100000Y-67500000D03*
X138100000Y-68000000D03*
D18*
X136400000Y-74000000D03*
X139100000Y-67900000D03*
X139500000Y-72300000D03*
X137000000Y-66800000D03*
X138800000Y-71500000D03*
X131700000Y-67700000D03*
X139500000Y-66800000D03*
X129600000Y-70200000D03*
X134564501Y-75900000D03*
D19*
X138600000Y-67900000D02*
X139100000Y-67900000D01*
X139100000Y-67900000D02*
X139000000Y-68000000D01*
X136375000Y-73975000D02*
X136400000Y-74000000D01*
X136375000Y-72300000D02*
X136375000Y-73975000D01*
X138000000Y-72300000D02*
X138800000Y-71500000D01*
X135775000Y-66895000D02*
X135680000Y-66800000D01*
X135775000Y-67987500D02*
X135775000Y-66895000D01*
X137000000Y-66800000D02*
X135680000Y-66800000D01*
X137625000Y-72300000D02*
X138000000Y-72300000D01*
X137400000Y-66800000D02*
X138100000Y-67500000D01*
X137000000Y-66800000D02*
X137400000Y-66800000D01*
X137687500Y-67987500D02*
X138100000Y-68400000D01*
X137075000Y-67987500D02*
X137687500Y-67987500D01*
X136375000Y-72300000D02*
X136375000Y-71750000D01*
X138100000Y-68400000D02*
X138600000Y-67900000D01*
X138100000Y-68000000D02*
X138100000Y-68400000D01*
X138100000Y-68400000D02*
X138100000Y-68750000D01*
X137687500Y-70137500D02*
X138050000Y-70500000D01*
X136361522Y-71100000D02*
X137075000Y-70386522D01*
X135125000Y-72300000D02*
X135125000Y-71750000D01*
X137075000Y-70137500D02*
X137687500Y-70137500D01*
X135775000Y-71100000D02*
X136361522Y-71100000D01*
X137075000Y-70386522D02*
X137075000Y-70137500D01*
X135125000Y-71750000D02*
X135775000Y-71100000D01*
X133875000Y-72300000D02*
X133875000Y-71750000D01*
X136000000Y-70700000D02*
X136425000Y-70275000D01*
X134925000Y-70700000D02*
X136000000Y-70700000D01*
X133875000Y-71750000D02*
X134925000Y-70700000D01*
X136425000Y-70275000D02*
X136425000Y-70137500D01*
D20*
X136305000Y-70320000D02*
X136305000Y-69975000D01*
X135699776Y-70212724D02*
X135775000Y-70137500D01*
D19*
X132625000Y-71750000D02*
X134162276Y-70212724D01*
X134162276Y-70212724D02*
X135699776Y-70212724D01*
G04 #@! TA.AperFunction,Conductor*
G36*
X140692121Y-65770002D02*
G01*
X140738614Y-65823658D01*
X140750000Y-65876000D01*
X140750000Y-67827455D01*
X140729998Y-67895576D01*
X140676342Y-67942069D01*
X140656614Y-67949161D01*
X140624865Y-67957668D01*
X140593146Y-67966167D01*
X140593144Y-67966168D01*
X140587836Y-67967590D01*
X140582855Y-67969913D01*
X140582854Y-67969913D01*
X140402444Y-68054039D01*
X140402439Y-68054042D01*
X140397457Y-68056365D01*
X140343555Y-68094108D01*
X140270070Y-68145563D01*
X140225386Y-68176851D01*
X140076851Y-68325386D01*
X140073694Y-68329894D01*
X140073692Y-68329897D01*
X140033853Y-68386793D01*
X139956365Y-68497457D01*
X139954042Y-68502439D01*
X139954039Y-68502444D01*
X139869913Y-68682854D01*
X139867590Y-68687836D01*
X139866168Y-68693144D01*
X139866167Y-68693146D01*
X139818924Y-68869458D01*
X139813222Y-68890739D01*
X139794914Y-69100000D01*
X139813222Y-69309261D01*
X139814646Y-69314574D01*
X139814646Y-69314576D01*
X139864264Y-69499750D01*
X139867590Y-69512164D01*
X139869913Y-69517145D01*
X139869913Y-69517146D01*
X139954039Y-69697556D01*
X139954042Y-69697561D01*
X139956365Y-69702543D01*
X140007352Y-69775360D01*
X140055644Y-69844327D01*
X140076851Y-69874614D01*
X140225386Y-70023149D01*
X140229894Y-70026306D01*
X140229897Y-70026308D01*
X140282999Y-70063490D01*
X140397457Y-70143635D01*
X140402439Y-70145958D01*
X140402444Y-70145961D01*
X140574896Y-70226376D01*
X140587836Y-70232410D01*
X140593144Y-70233832D01*
X140593146Y-70233833D01*
X140616650Y-70240131D01*
X140656612Y-70250839D01*
X140717234Y-70287790D01*
X140748255Y-70351650D01*
X140750000Y-70372545D01*
X140750000Y-73573500D01*
X140729998Y-73641621D01*
X140676342Y-73688114D01*
X140624000Y-73699500D01*
X139055252Y-73699500D01*
X139049184Y-73700707D01*
X139008939Y-73708712D01*
X139008938Y-73708712D01*
X138996769Y-73711133D01*
X138930448Y-73755448D01*
X138886133Y-73821769D01*
X138883712Y-73833938D01*
X138883712Y-73833939D01*
X138880234Y-73851426D01*
X138874500Y-73880252D01*
X138874500Y-76119748D01*
X138875706Y-76125811D01*
X138875707Y-76125821D01*
X138880302Y-76148921D01*
X138873973Y-76219634D01*
X138830418Y-76275701D01*
X138756723Y-76299500D01*
X130243277Y-76299500D01*
X130175156Y-76279498D01*
X130128663Y-76225842D01*
X130119698Y-76148921D01*
X130124293Y-76125821D01*
X130124294Y-76125811D01*
X130125500Y-76119748D01*
X130125500Y-73880252D01*
X130119766Y-73851426D01*
X130116288Y-73833939D01*
X130116288Y-73833938D01*
X130113867Y-73821769D01*
X130069552Y-73755448D01*
X130003231Y-73711133D01*
X129991062Y-73708712D01*
X129991061Y-73708712D01*
X129950816Y-73700707D01*
X129944748Y-73699500D01*
X128376000Y-73699500D01*
X128307879Y-73679498D01*
X128261386Y-73625842D01*
X128250000Y-73573500D01*
X128250000Y-73226525D01*
X130625001Y-73226525D01*
X130625776Y-73236374D01*
X130638283Y-73315351D01*
X130644338Y-73333986D01*
X130692859Y-73429213D01*
X130704370Y-73445056D01*
X130779944Y-73520630D01*
X130795787Y-73532141D01*
X130891018Y-73580664D01*
X130909645Y-73586716D01*
X130988627Y-73599225D01*
X130998473Y-73600000D01*
X131156885Y-73600000D01*
X131172124Y-73595525D01*
X131173329Y-73594135D01*
X131175000Y-73586452D01*
X131175000Y-73581884D01*
X131575000Y-73581884D01*
X131579475Y-73597123D01*
X131580865Y-73598328D01*
X131588548Y-73599999D01*
X131751525Y-73599999D01*
X131761374Y-73599224D01*
X131840351Y-73586717D01*
X131858986Y-73580662D01*
X131954213Y-73532141D01*
X131970056Y-73520630D01*
X132045627Y-73445059D01*
X132055053Y-73432086D01*
X132111276Y-73388734D01*
X132182013Y-73382660D01*
X132192079Y-73385733D01*
X132196769Y-73388867D01*
X132208938Y-73391288D01*
X132208939Y-73391288D01*
X132249184Y-73399293D01*
X132255252Y-73400500D01*
X132994748Y-73400500D01*
X133000816Y-73399293D01*
X133041061Y-73391288D01*
X133041062Y-73391288D01*
X133053231Y-73388867D01*
X133119552Y-73344552D01*
X133126443Y-73334239D01*
X133126445Y-73334237D01*
X133145235Y-73306116D01*
X133199712Y-73260588D01*
X133270155Y-73251741D01*
X133334199Y-73282382D01*
X133354765Y-73306116D01*
X133373555Y-73334237D01*
X133373557Y-73334239D01*
X133380448Y-73344552D01*
X133446769Y-73388867D01*
X133458938Y-73391288D01*
X133458939Y-73391288D01*
X133499184Y-73399293D01*
X133505252Y-73400500D01*
X134244748Y-73400500D01*
X134250816Y-73399293D01*
X134291061Y-73391288D01*
X134291062Y-73391288D01*
X134303231Y-73388867D01*
X134369552Y-73344552D01*
X134376443Y-73334239D01*
X134376445Y-73334237D01*
X134395235Y-73306116D01*
X134449712Y-73260588D01*
X134520155Y-73251741D01*
X134584199Y-73282382D01*
X134604765Y-73306116D01*
X134623555Y-73334237D01*
X134623557Y-73334239D01*
X134630448Y-73344552D01*
X134696769Y-73388867D01*
X134708938Y-73391288D01*
X134708939Y-73391288D01*
X134749184Y-73399293D01*
X134755252Y-73400500D01*
X135494748Y-73400500D01*
X135500816Y-73399293D01*
X135541061Y-73391288D01*
X135541062Y-73391288D01*
X135553231Y-73388867D01*
X135619552Y-73344552D01*
X135626443Y-73334239D01*
X135626445Y-73334237D01*
X135645235Y-73306116D01*
X135699712Y-73260588D01*
X135770155Y-73251741D01*
X135834199Y-73282382D01*
X135854765Y-73306116D01*
X135873555Y-73334237D01*
X135873557Y-73334239D01*
X135880448Y-73344552D01*
X135890761Y-73351443D01*
X135890763Y-73351445D01*
X135944593Y-73387413D01*
X135990121Y-73441890D01*
X135998969Y-73512333D01*
X135969462Y-73569987D01*
X135971718Y-73571718D01*
X135875464Y-73697159D01*
X135814956Y-73843238D01*
X135813878Y-73851426D01*
X135804637Y-73921619D01*
X135794318Y-74000000D01*
X135814956Y-74156762D01*
X135875464Y-74302841D01*
X135971718Y-74428282D01*
X136097159Y-74524536D01*
X136243238Y-74585044D01*
X136400000Y-74605682D01*
X136408188Y-74604604D01*
X136548574Y-74586122D01*
X136556762Y-74585044D01*
X136702841Y-74524536D01*
X136828282Y-74428282D01*
X136924536Y-74302841D01*
X136985044Y-74156762D01*
X137005682Y-74000000D01*
X136995363Y-73921619D01*
X136986122Y-73851426D01*
X136985044Y-73843238D01*
X136924536Y-73697159D01*
X136856059Y-73607918D01*
X136833305Y-73578264D01*
X136828282Y-73571718D01*
X136821736Y-73566695D01*
X136816287Y-73561246D01*
X136782261Y-73498934D01*
X136787326Y-73428119D01*
X136835379Y-73367386D01*
X136859239Y-73351443D01*
X136869552Y-73344552D01*
X136876443Y-73334239D01*
X136876445Y-73334237D01*
X136895235Y-73306116D01*
X136949712Y-73260588D01*
X137020155Y-73251741D01*
X137084199Y-73282382D01*
X137104765Y-73306116D01*
X137123555Y-73334237D01*
X137123557Y-73334239D01*
X137130448Y-73344552D01*
X137196769Y-73388867D01*
X137208938Y-73391288D01*
X137208939Y-73391288D01*
X137249184Y-73399293D01*
X137255252Y-73400500D01*
X137994748Y-73400500D01*
X138000816Y-73399293D01*
X138041061Y-73391288D01*
X138041062Y-73391288D01*
X138053231Y-73388867D01*
X138119552Y-73344552D01*
X138163867Y-73278231D01*
X138167377Y-73260588D01*
X138174293Y-73225816D01*
X138175500Y-73219748D01*
X138175500Y-72606493D01*
X138195502Y-72538372D01*
X138205491Y-72526578D01*
X138205347Y-72526468D01*
X138205348Y-72526468D01*
X138221916Y-72504680D01*
X138233110Y-72491861D01*
X138596375Y-72128596D01*
X138658687Y-72094570D01*
X138701916Y-72092769D01*
X138800000Y-72105682D01*
X138808188Y-72104604D01*
X138948574Y-72086122D01*
X138956762Y-72085044D01*
X139102841Y-72024536D01*
X139228282Y-71928282D01*
X139324536Y-71802841D01*
X139385044Y-71656762D01*
X139405682Y-71500000D01*
X139389917Y-71380252D01*
X139386122Y-71351426D01*
X139385044Y-71343238D01*
X139324536Y-71197159D01*
X139228282Y-71071718D01*
X139142461Y-71005865D01*
X139116392Y-70985862D01*
X139074525Y-70928524D01*
X139070303Y-70857653D01*
X139087281Y-70821082D01*
X139086235Y-70820509D01*
X139099079Y-70797048D01*
X139140918Y-70685443D01*
X139144543Y-70670198D01*
X139144780Y-70668011D01*
X139142164Y-70653419D01*
X139129730Y-70650000D01*
X138576500Y-70650000D01*
X138508379Y-70629998D01*
X138461886Y-70576342D01*
X138450500Y-70524001D01*
X138450499Y-70404056D01*
X138450499Y-70397868D01*
X138445463Y-70372545D01*
X138437375Y-70331885D01*
X138700000Y-70331885D01*
X138704475Y-70347124D01*
X138705865Y-70348329D01*
X138713548Y-70350000D01*
X139128622Y-70350000D01*
X139142845Y-70345824D01*
X139144900Y-70333094D01*
X139144543Y-70329802D01*
X139140918Y-70314557D01*
X139099079Y-70202952D01*
X139090547Y-70187366D01*
X139019711Y-70092850D01*
X139007150Y-70080289D01*
X138912634Y-70009453D01*
X138897048Y-70000921D01*
X138785444Y-69959083D01*
X138770197Y-69955457D01*
X138723362Y-69950369D01*
X138717871Y-69950072D01*
X138702876Y-69954475D01*
X138701671Y-69955865D01*
X138700000Y-69963548D01*
X138700000Y-70331885D01*
X138437375Y-70331885D01*
X138436936Y-70329676D01*
X138436936Y-70329675D01*
X138434515Y-70317505D01*
X138425775Y-70304424D01*
X138421235Y-70297630D01*
X138400000Y-70227628D01*
X138400000Y-69968115D01*
X138385992Y-69920407D01*
X138382724Y-69915323D01*
X138382719Y-69844327D01*
X138421099Y-69784598D01*
X138428053Y-69778991D01*
X138507150Y-69719711D01*
X138519711Y-69707150D01*
X138590547Y-69612634D01*
X138599079Y-69597048D01*
X138640917Y-69485444D01*
X138644543Y-69470197D01*
X138649631Y-69423362D01*
X138649928Y-69417871D01*
X138645525Y-69402876D01*
X138644135Y-69401671D01*
X138636452Y-69400000D01*
X138227104Y-69400000D01*
X138158983Y-69379998D01*
X138112490Y-69326342D01*
X138102386Y-69256068D01*
X138131880Y-69191488D01*
X138191606Y-69153104D01*
X138202524Y-69150421D01*
X138270324Y-69136936D01*
X138270325Y-69136936D01*
X138282495Y-69134515D01*
X138302370Y-69121235D01*
X138372372Y-69100000D01*
X138631885Y-69100000D01*
X138647124Y-69095525D01*
X138648329Y-69094135D01*
X138650000Y-69086452D01*
X138650000Y-69083450D01*
X138649631Y-69076638D01*
X138644543Y-69029803D01*
X138640917Y-69014556D01*
X138599079Y-68902952D01*
X138590547Y-68887366D01*
X138519711Y-68792850D01*
X138507149Y-68780288D01*
X138500934Y-68775630D01*
X138458419Y-68718771D01*
X138450499Y-68674804D01*
X138450499Y-68597868D01*
X138443165Y-68560996D01*
X138449493Y-68490284D01*
X138477649Y-68447322D01*
X138551130Y-68373841D01*
X138613442Y-68339815D01*
X138684257Y-68344880D01*
X138716929Y-68362974D01*
X138790603Y-68419506D01*
X138790606Y-68419508D01*
X138797159Y-68424536D01*
X138943238Y-68485044D01*
X139100000Y-68505682D01*
X139108188Y-68504604D01*
X139248574Y-68486122D01*
X139256762Y-68485044D01*
X139402841Y-68424536D01*
X139528282Y-68328282D01*
X139533495Y-68321489D01*
X139619509Y-68209392D01*
X139624536Y-68202841D01*
X139685044Y-68056762D01*
X139705682Y-67900000D01*
X139685044Y-67743238D01*
X139624536Y-67597159D01*
X139528282Y-67471718D01*
X139402841Y-67375464D01*
X139256762Y-67314956D01*
X139100000Y-67294318D01*
X138943238Y-67314956D01*
X138797159Y-67375464D01*
X138671718Y-67471718D01*
X138666695Y-67478264D01*
X138665594Y-67479365D01*
X138603282Y-67513391D01*
X138532467Y-67508326D01*
X138475631Y-67465779D01*
X138450820Y-67399259D01*
X138450499Y-67390270D01*
X138450499Y-67347868D01*
X138449292Y-67341802D01*
X138449292Y-67341797D01*
X138436936Y-67279676D01*
X138436936Y-67279675D01*
X138434515Y-67267505D01*
X138373624Y-67176376D01*
X138282495Y-67115485D01*
X138202133Y-67099500D01*
X138176661Y-67099500D01*
X138108540Y-67079498D01*
X138087566Y-67062595D01*
X137649519Y-66624548D01*
X137647763Y-66622514D01*
X137645425Y-66617731D01*
X137624510Y-66598329D01*
X137609523Y-66584427D01*
X137606118Y-66581147D01*
X137592723Y-66567752D01*
X137588753Y-66565028D01*
X137586105Y-66562703D01*
X137571882Y-66549510D01*
X137563354Y-66541599D01*
X137563163Y-66541523D01*
X137527560Y-66504459D01*
X137524536Y-66497159D01*
X137428282Y-66371718D01*
X137407251Y-66355580D01*
X137334950Y-66300102D01*
X137302841Y-66275464D01*
X137156762Y-66214956D01*
X137000000Y-66194318D01*
X136843238Y-66214956D01*
X136697159Y-66275464D01*
X136665050Y-66300102D01*
X136592750Y-66355580D01*
X136571718Y-66371718D01*
X136566695Y-66378264D01*
X136511494Y-66450204D01*
X136454156Y-66492071D01*
X136411531Y-66499500D01*
X136213964Y-66499500D01*
X136145843Y-66479498D01*
X136110752Y-66445773D01*
X136107884Y-66441677D01*
X136103224Y-66431684D01*
X136018316Y-66346776D01*
X135962832Y-66320903D01*
X135918224Y-66300102D01*
X135918223Y-66300102D01*
X135909487Y-66296028D01*
X135859901Y-66289500D01*
X135680066Y-66289500D01*
X135500100Y-66289501D01*
X135450513Y-66296028D01*
X135441779Y-66300101D01*
X135441778Y-66300101D01*
X135420031Y-66310242D01*
X135349839Y-66320903D01*
X135285027Y-66291923D01*
X135266417Y-66272225D01*
X135250618Y-66251410D01*
X135238589Y-66239381D01*
X135134420Y-66160313D01*
X135119597Y-66151960D01*
X134997545Y-66103637D01*
X134981980Y-66099684D01*
X134937985Y-66094360D01*
X134923610Y-66096757D01*
X134920000Y-66109581D01*
X134920000Y-67424000D01*
X134899998Y-67492121D01*
X134846342Y-67538614D01*
X134794000Y-67550000D01*
X134646000Y-67550000D01*
X134577879Y-67529998D01*
X134531386Y-67476342D01*
X134520000Y-67424000D01*
X134520000Y-67018115D01*
X134515525Y-67002876D01*
X134514135Y-67001671D01*
X134506452Y-67000000D01*
X134058115Y-67000000D01*
X134042876Y-67004475D01*
X134041671Y-67005865D01*
X134040254Y-67012379D01*
X134040456Y-67015720D01*
X134049685Y-67091987D01*
X134053119Y-67105511D01*
X134050498Y-67176459D01*
X134009935Y-67234727D01*
X133950703Y-67260970D01*
X133909650Y-67267471D01*
X133891014Y-67273526D01*
X133795787Y-67322047D01*
X133779944Y-67333558D01*
X133704370Y-67409132D01*
X133692859Y-67424975D01*
X133644336Y-67520206D01*
X133638284Y-67538833D01*
X133625775Y-67617815D01*
X133625000Y-67627661D01*
X133625000Y-67636073D01*
X133629475Y-67651312D01*
X133630865Y-67652517D01*
X133638548Y-67654188D01*
X134765656Y-67654188D01*
X134833777Y-67674190D01*
X134880270Y-67727846D01*
X134891656Y-67780188D01*
X134891656Y-67946062D01*
X134871654Y-68014183D01*
X134817998Y-68060676D01*
X134747724Y-68070780D01*
X134728397Y-68066427D01*
X134726341Y-68065791D01*
X134701193Y-68058006D01*
X134695068Y-68057362D01*
X134695067Y-68057362D01*
X134508288Y-68037731D01*
X134508286Y-68037731D01*
X134502159Y-68037087D01*
X134418106Y-68044736D01*
X134308991Y-68054666D01*
X134308988Y-68054667D01*
X134302852Y-68055225D01*
X134110864Y-68111730D01*
X134105406Y-68114583D01*
X134105402Y-68114585D01*
X134044809Y-68146263D01*
X133933508Y-68204450D01*
X133777539Y-68329853D01*
X133702308Y-68419509D01*
X133670436Y-68457492D01*
X133641178Y-68476625D01*
X133626672Y-68493365D01*
X133622122Y-68514283D01*
X133619984Y-68513818D01*
X133609416Y-68554976D01*
X133555452Y-68653137D01*
X133555450Y-68653142D01*
X133552484Y-68658537D01*
X133550623Y-68664404D01*
X133550622Y-68664406D01*
X133543296Y-68687500D01*
X133491970Y-68849299D01*
X133469662Y-69048183D01*
X133470178Y-69054327D01*
X133470864Y-69062500D01*
X133485892Y-69241472D01*
X133485893Y-69241477D01*
X133486408Y-69247611D01*
X133541572Y-69439989D01*
X133544390Y-69445472D01*
X133630231Y-69612502D01*
X133630234Y-69612506D01*
X133633051Y-69617988D01*
X133757362Y-69774829D01*
X133879107Y-69878442D01*
X133918019Y-69937824D01*
X133918650Y-70008818D01*
X133886538Y-70063490D01*
X132787434Y-71162595D01*
X132725122Y-71196620D01*
X132698339Y-71199500D01*
X132255252Y-71199500D01*
X132249184Y-71200707D01*
X132208939Y-71208712D01*
X132208938Y-71208712D01*
X132196769Y-71211133D01*
X132196709Y-71211173D01*
X132134612Y-71217847D01*
X132071126Y-71186066D01*
X132055053Y-71167914D01*
X132045627Y-71154941D01*
X131970056Y-71079370D01*
X131954213Y-71067859D01*
X131858982Y-71019336D01*
X131840355Y-71013284D01*
X131761373Y-71000775D01*
X131751527Y-71000000D01*
X131593115Y-71000000D01*
X131577876Y-71004475D01*
X131576671Y-71005865D01*
X131575000Y-71013548D01*
X131575000Y-73581884D01*
X131175000Y-73581884D01*
X131175000Y-72518115D01*
X131170525Y-72502876D01*
X131169135Y-72501671D01*
X131161452Y-72500000D01*
X130643116Y-72500000D01*
X130627877Y-72504475D01*
X130626672Y-72505865D01*
X130625001Y-72513548D01*
X130625001Y-73226525D01*
X128250000Y-73226525D01*
X128250000Y-72081885D01*
X130625000Y-72081885D01*
X130629475Y-72097124D01*
X130630865Y-72098329D01*
X130638548Y-72100000D01*
X131156885Y-72100000D01*
X131172124Y-72095525D01*
X131173329Y-72094135D01*
X131175000Y-72086452D01*
X131175000Y-71018116D01*
X131170525Y-71002877D01*
X131169135Y-71001672D01*
X131161452Y-71000001D01*
X130998475Y-71000001D01*
X130988626Y-71000776D01*
X130909649Y-71013283D01*
X130891014Y-71019338D01*
X130795787Y-71067859D01*
X130779944Y-71079370D01*
X130704370Y-71154944D01*
X130692859Y-71170787D01*
X130644336Y-71266018D01*
X130638284Y-71284645D01*
X130625775Y-71363627D01*
X130625000Y-71373473D01*
X130625000Y-72081885D01*
X128250000Y-72081885D01*
X128250000Y-70372545D01*
X128270002Y-70304424D01*
X128323658Y-70257931D01*
X128343386Y-70250839D01*
X128383350Y-70240131D01*
X128406854Y-70233833D01*
X128406856Y-70233832D01*
X128412164Y-70232410D01*
X128425104Y-70226376D01*
X128597556Y-70145961D01*
X128597561Y-70145958D01*
X128602543Y-70143635D01*
X128717001Y-70063490D01*
X128770103Y-70026308D01*
X128770106Y-70026306D01*
X128774614Y-70023149D01*
X128923149Y-69874614D01*
X128944357Y-69844327D01*
X128992648Y-69775360D01*
X129043635Y-69702543D01*
X129045958Y-69697561D01*
X129045961Y-69697556D01*
X129130087Y-69517146D01*
X129130087Y-69517145D01*
X129132410Y-69512164D01*
X129135737Y-69499750D01*
X129185354Y-69314576D01*
X129185354Y-69314574D01*
X129186778Y-69309261D01*
X129205086Y-69100000D01*
X129186778Y-68890739D01*
X129181076Y-68869458D01*
X129133833Y-68693146D01*
X129133832Y-68693144D01*
X129132410Y-68687836D01*
X129130087Y-68682854D01*
X129045961Y-68502444D01*
X129045958Y-68502439D01*
X129043635Y-68497457D01*
X128966147Y-68386793D01*
X128926308Y-68329897D01*
X128926306Y-68329894D01*
X128923149Y-68325386D01*
X128774614Y-68176851D01*
X128729931Y-68145563D01*
X128656445Y-68094108D01*
X128602543Y-68056365D01*
X128597561Y-68054042D01*
X128597556Y-68054039D01*
X128417146Y-67969913D01*
X128417145Y-67969913D01*
X128412164Y-67967590D01*
X128406856Y-67966168D01*
X128406854Y-67966167D01*
X128375135Y-67957668D01*
X128343388Y-67949161D01*
X128282766Y-67912210D01*
X128251745Y-67848350D01*
X128250000Y-67827455D01*
X128250000Y-66583683D01*
X134040528Y-66583683D01*
X134044475Y-66597124D01*
X134045865Y-66598329D01*
X134053548Y-66600000D01*
X134501885Y-66600000D01*
X134517124Y-66595525D01*
X134518329Y-66594135D01*
X134520000Y-66586452D01*
X134520000Y-66110299D01*
X134515895Y-66096317D01*
X134502729Y-66094274D01*
X134458020Y-66099684D01*
X134442455Y-66103637D01*
X134320403Y-66151960D01*
X134305580Y-66160313D01*
X134201411Y-66239381D01*
X134189381Y-66251411D01*
X134110313Y-66355580D01*
X134101960Y-66370403D01*
X134053637Y-66492455D01*
X134049684Y-66508020D01*
X134040528Y-66583683D01*
X128250000Y-66583683D01*
X128250000Y-65876000D01*
X128270002Y-65807879D01*
X128323658Y-65761386D01*
X128376000Y-65750000D01*
X140624000Y-65750000D01*
X140692121Y-65770002D01*
G37*
G04 #@! TD.AperFunction*
G04 #@! TA.AperFunction,Conductor*
G36*
X136567121Y-67807502D02*
G01*
X136613614Y-67861158D01*
X136625000Y-67913500D01*
X136625000Y-68669384D01*
X136629475Y-68684623D01*
X136630865Y-68685828D01*
X136638548Y-68687499D01*
X136651525Y-68687499D01*
X136661374Y-68686724D01*
X136740351Y-68674217D01*
X136758986Y-68668162D01*
X136854213Y-68619641D01*
X136870056Y-68608130D01*
X136945630Y-68532556D01*
X136957141Y-68516712D01*
X136987670Y-68456797D01*
X137036418Y-68405182D01*
X137099936Y-68388000D01*
X137274112Y-68387999D01*
X137284898Y-68387999D01*
X137298810Y-68385232D01*
X137302045Y-68384589D01*
X137314213Y-68382169D01*
X137347457Y-68359957D01*
X137354349Y-68349642D01*
X137354351Y-68349640D01*
X137358120Y-68343999D01*
X137412597Y-68298471D01*
X137462886Y-68288000D01*
X137510839Y-68288000D01*
X137578960Y-68308002D01*
X137599934Y-68324905D01*
X137722350Y-68447321D01*
X137756376Y-68509633D01*
X137756834Y-68560997D01*
X137749500Y-68597867D01*
X137749500Y-68674805D01*
X137729498Y-68742926D01*
X137699065Y-68775631D01*
X137692850Y-68780289D01*
X137680289Y-68792850D01*
X137609453Y-68887366D01*
X137600921Y-68902952D01*
X137559083Y-69014556D01*
X137555457Y-69029803D01*
X137550369Y-69076638D01*
X137550072Y-69082129D01*
X137554475Y-69097124D01*
X137555865Y-69098329D01*
X137563548Y-69100000D01*
X137827628Y-69100000D01*
X137897630Y-69121235D01*
X137907185Y-69127620D01*
X137907188Y-69127621D01*
X137917505Y-69134515D01*
X137997470Y-69150421D01*
X138060380Y-69183328D01*
X138095512Y-69245023D01*
X138091712Y-69315918D01*
X138050186Y-69373504D01*
X137984120Y-69399499D01*
X137972889Y-69400000D01*
X137568115Y-69400000D01*
X137552876Y-69404475D01*
X137551671Y-69405865D01*
X137550000Y-69413548D01*
X137550000Y-69416550D01*
X137550369Y-69423362D01*
X137555457Y-69470197D01*
X137559083Y-69485444D01*
X137600921Y-69597048D01*
X137609453Y-69612634D01*
X137626542Y-69635435D01*
X137651390Y-69701941D01*
X137636337Y-69771324D01*
X137586163Y-69821554D01*
X137525716Y-69837000D01*
X137462886Y-69837000D01*
X137394765Y-69816998D01*
X137358120Y-69781001D01*
X137354351Y-69775360D01*
X137354349Y-69775358D01*
X137347457Y-69765043D01*
X137314213Y-69742831D01*
X137284899Y-69737000D01*
X137075102Y-69737000D01*
X136865102Y-69737001D01*
X136851190Y-69739768D01*
X136847961Y-69740410D01*
X136835787Y-69742831D01*
X136825473Y-69749722D01*
X136825469Y-69749724D01*
X136819999Y-69753379D01*
X136752246Y-69774592D01*
X136680001Y-69753379D01*
X136674533Y-69749726D01*
X136674532Y-69749725D01*
X136664213Y-69742831D01*
X136634899Y-69737000D01*
X136573610Y-69737000D01*
X136505489Y-69716998D01*
X136492630Y-69707529D01*
X136470261Y-69688760D01*
X136362394Y-69649500D01*
X136247606Y-69649500D01*
X136237246Y-69653271D01*
X136237245Y-69653271D01*
X136150100Y-69684989D01*
X136150099Y-69684990D01*
X136139740Y-69688760D01*
X136131296Y-69695846D01*
X136131295Y-69695846D01*
X136109891Y-69713806D01*
X136044850Y-69742270D01*
X136004320Y-69740863D01*
X135984899Y-69737000D01*
X135775102Y-69737000D01*
X135565102Y-69737001D01*
X135535787Y-69742831D01*
X135534132Y-69743937D01*
X135470715Y-69750753D01*
X135407229Y-69718972D01*
X135371003Y-69657913D01*
X135373539Y-69586962D01*
X135383533Y-69564520D01*
X135420328Y-69499750D01*
X135431784Y-69479583D01*
X135494955Y-69289684D01*
X135520038Y-69091132D01*
X135520438Y-69062500D01*
X135500909Y-68863325D01*
X135443065Y-68671736D01*
X135382392Y-68557627D01*
X135368073Y-68488090D01*
X135393621Y-68421849D01*
X135450926Y-68379936D01*
X135521793Y-68375659D01*
X135529932Y-68378257D01*
X135535787Y-68382169D01*
X135565101Y-68388000D01*
X135750064Y-68388000D01*
X135818183Y-68408001D01*
X135862330Y-68456797D01*
X135892857Y-68516710D01*
X135904370Y-68532556D01*
X135979944Y-68608130D01*
X135995787Y-68619641D01*
X136091018Y-68668164D01*
X136109645Y-68674216D01*
X136188627Y-68686725D01*
X136198473Y-68687500D01*
X136206885Y-68687500D01*
X136222124Y-68683025D01*
X136223329Y-68681635D01*
X136225000Y-68673952D01*
X136225000Y-67913500D01*
X136245002Y-67845379D01*
X136298658Y-67798886D01*
X136351000Y-67787500D01*
X136499000Y-67787500D01*
X136567121Y-67807502D01*
G37*
G04 #@! TD.AperFunction*
M02*
