%FSLAX45Y45*%
G04 Gerber Fmt 4.5, Leading zero omitted, Abs format (unit mm)*
G04 Created by KiCad (PCBNEW 6.0.4-6f826c9f35~116~ubuntu18.04.1) date 2022-05-30 12:35:18*
%MOMM*%
%LPD*%
G01*
G04 APERTURE LIST*
%TA.AperFunction,Profile*%
%ADD10C,0.100000*%
%TD*%
%ADD11C,0.200000*%
%ADD12C,0.030000*%
%ADD13C,0.040000*%
G04 APERTURE END LIST*
D10*
X14100000Y-7010000D02*
X14100000Y-7650000D01*
X12800000Y-7010000D02*
X12800000Y-7650000D01*
X14100000Y-6810000D02*
G75*
G03*
X14100000Y-7010000I0J-100000D01*
G01*
X12800000Y-7010000D02*
G75*
G03*
X12800000Y-6810000I0J100000D01*
G01*
X14100000Y-6810000D02*
X14100000Y-6550000D01*
X12800000Y-7650000D02*
X14100000Y-7650000D01*
X14100000Y-6550000D02*
X12800000Y-6550000D01*
X12800000Y-6810000D02*
X12800000Y-6550000D01*
D11*
D12*
X12945000Y-7005000D02*
X12975000Y-7035000D01*
X12975000Y-7005000D02*
X12945000Y-7035000D01*
X13155000Y-6755000D02*
X13185000Y-6785000D01*
X13185000Y-6755000D02*
X13155000Y-6785000D01*
X13441450Y-7575000D02*
X13471450Y-7605000D01*
X13471450Y-7575000D02*
X13441450Y-7605000D01*
X13685000Y-6665000D02*
X13715000Y-6695000D01*
X13715000Y-6665000D02*
X13685000Y-6695000D01*
X13865000Y-7135000D02*
X13895000Y-7165000D01*
X13895000Y-7135000D02*
X13865000Y-7165000D01*
X13895000Y-6775000D02*
X13925000Y-6805000D01*
X13925000Y-6775000D02*
X13895000Y-6805000D01*
X13935000Y-6665000D02*
X13965000Y-6695000D01*
X13965000Y-6665000D02*
X13935000Y-6695000D01*
X13935000Y-7215000D02*
X13965000Y-7245000D01*
X13965000Y-7215000D02*
X13935000Y-7245000D01*
D13*
X13660000Y-7400000D02*
G75*
G03*
X13660000Y-7400000I-20000J0D01*
G01*
D11*
X13052619Y-7965476D02*
X13052619Y-7765476D01*
X13100238Y-7765476D01*
X13128809Y-7775000D01*
X13147857Y-7794048D01*
X13157381Y-7813095D01*
X13166905Y-7851190D01*
X13166905Y-7879762D01*
X13157381Y-7917857D01*
X13147857Y-7936905D01*
X13128809Y-7955952D01*
X13100238Y-7965476D01*
X13052619Y-7965476D01*
X13252619Y-7965476D02*
X13252619Y-7832143D01*
X13252619Y-7870238D02*
X13262143Y-7851190D01*
X13271667Y-7841667D01*
X13290714Y-7832143D01*
X13309762Y-7832143D01*
X13376428Y-7965476D02*
X13376428Y-7832143D01*
X13376428Y-7765476D02*
X13366905Y-7775000D01*
X13376428Y-7784524D01*
X13385952Y-7775000D01*
X13376428Y-7765476D01*
X13376428Y-7784524D01*
X13500238Y-7965476D02*
X13481190Y-7955952D01*
X13471667Y-7936905D01*
X13471667Y-7765476D01*
X13605000Y-7965476D02*
X13585952Y-7955952D01*
X13576428Y-7936905D01*
X13576428Y-7765476D01*
X13833571Y-7965476D02*
X13833571Y-7765476D01*
X13900238Y-7908333D01*
X13966905Y-7765476D01*
X13966905Y-7965476D01*
X14147857Y-7965476D02*
X14147857Y-7860714D01*
X14138333Y-7841667D01*
X14119286Y-7832143D01*
X14081190Y-7832143D01*
X14062143Y-7841667D01*
X14147857Y-7955952D02*
X14128809Y-7965476D01*
X14081190Y-7965476D01*
X14062143Y-7955952D01*
X14052619Y-7936905D01*
X14052619Y-7917857D01*
X14062143Y-7898809D01*
X14081190Y-7889286D01*
X14128809Y-7889286D01*
X14147857Y-7879762D01*
X14243095Y-7832143D02*
X14243095Y-8032143D01*
X14243095Y-7841667D02*
X14262143Y-7832143D01*
X14300238Y-7832143D01*
X14319286Y-7841667D01*
X14328809Y-7851190D01*
X14338333Y-7870238D01*
X14338333Y-7927381D01*
X14328809Y-7946428D01*
X14319286Y-7955952D01*
X14300238Y-7965476D01*
X14262143Y-7965476D01*
X14243095Y-7955952D01*
X14424048Y-7946428D02*
X14433571Y-7955952D01*
X14424048Y-7965476D01*
X14414524Y-7955952D01*
X14424048Y-7946428D01*
X14424048Y-7965476D01*
X14424048Y-7841667D02*
X14433571Y-7851190D01*
X14424048Y-7860714D01*
X14414524Y-7851190D01*
X14424048Y-7841667D01*
X14424048Y-7860714D01*
D12*
X12765000Y-8280000D02*
X12795000Y-8310000D01*
X12795000Y-8280000D02*
X12765000Y-8310000D01*
D11*
X13090714Y-8185476D02*
X13109762Y-8185476D01*
X13128809Y-8195000D01*
X13138333Y-8204524D01*
X13147857Y-8223571D01*
X13157381Y-8261667D01*
X13157381Y-8309286D01*
X13147857Y-8347381D01*
X13138333Y-8366428D01*
X13128809Y-8375952D01*
X13109762Y-8385476D01*
X13090714Y-8385476D01*
X13071667Y-8375952D01*
X13062143Y-8366428D01*
X13052619Y-8347381D01*
X13043095Y-8309286D01*
X13043095Y-8261667D01*
X13052619Y-8223571D01*
X13062143Y-8204524D01*
X13071667Y-8195000D01*
X13090714Y-8185476D01*
X13243095Y-8366428D02*
X13252619Y-8375952D01*
X13243095Y-8385476D01*
X13233571Y-8375952D01*
X13243095Y-8366428D01*
X13243095Y-8385476D01*
X13319286Y-8185476D02*
X13443095Y-8185476D01*
X13376428Y-8261667D01*
X13405000Y-8261667D01*
X13424048Y-8271190D01*
X13433571Y-8280714D01*
X13443095Y-8299762D01*
X13443095Y-8347381D01*
X13433571Y-8366428D01*
X13424048Y-8375952D01*
X13405000Y-8385476D01*
X13347857Y-8385476D01*
X13328809Y-8375952D01*
X13319286Y-8366428D01*
X13566905Y-8185476D02*
X13585952Y-8185476D01*
X13605000Y-8195000D01*
X13614524Y-8204524D01*
X13624048Y-8223571D01*
X13633571Y-8261667D01*
X13633571Y-8309286D01*
X13624048Y-8347381D01*
X13614524Y-8366428D01*
X13605000Y-8375952D01*
X13585952Y-8385476D01*
X13566905Y-8385476D01*
X13547857Y-8375952D01*
X13538333Y-8366428D01*
X13528809Y-8347381D01*
X13519286Y-8309286D01*
X13519286Y-8261667D01*
X13528809Y-8223571D01*
X13538333Y-8204524D01*
X13547857Y-8195000D01*
X13566905Y-8185476D01*
X13757381Y-8185476D02*
X13776428Y-8185476D01*
X13795476Y-8195000D01*
X13805000Y-8204524D01*
X13814524Y-8223571D01*
X13824048Y-8261667D01*
X13824048Y-8309286D01*
X13814524Y-8347381D01*
X13805000Y-8366428D01*
X13795476Y-8375952D01*
X13776428Y-8385476D01*
X13757381Y-8385476D01*
X13738333Y-8375952D01*
X13728809Y-8366428D01*
X13719286Y-8347381D01*
X13709762Y-8309286D01*
X13709762Y-8261667D01*
X13719286Y-8223571D01*
X13728809Y-8204524D01*
X13738333Y-8195000D01*
X13757381Y-8185476D01*
X13909762Y-8385476D02*
X13909762Y-8252143D01*
X13909762Y-8271190D02*
X13919286Y-8261667D01*
X13938333Y-8252143D01*
X13966905Y-8252143D01*
X13985952Y-8261667D01*
X13995476Y-8280714D01*
X13995476Y-8385476D01*
X13995476Y-8280714D02*
X14005000Y-8261667D01*
X14024048Y-8252143D01*
X14052619Y-8252143D01*
X14071667Y-8261667D01*
X14081190Y-8280714D01*
X14081190Y-8385476D01*
X14176428Y-8385476D02*
X14176428Y-8252143D01*
X14176428Y-8271190D02*
X14185952Y-8261667D01*
X14205000Y-8252143D01*
X14233571Y-8252143D01*
X14252619Y-8261667D01*
X14262143Y-8280714D01*
X14262143Y-8385476D01*
X14262143Y-8280714D02*
X14271667Y-8261667D01*
X14290714Y-8252143D01*
X14319286Y-8252143D01*
X14338333Y-8261667D01*
X14347857Y-8280714D01*
X14347857Y-8385476D01*
X14738333Y-8175952D02*
X14566905Y-8433095D01*
X14995476Y-8185476D02*
X15014524Y-8185476D01*
X15033571Y-8195000D01*
X15043095Y-8204524D01*
X15052619Y-8223571D01*
X15062143Y-8261667D01*
X15062143Y-8309286D01*
X15052619Y-8347381D01*
X15043095Y-8366428D01*
X15033571Y-8375952D01*
X15014524Y-8385476D01*
X14995476Y-8385476D01*
X14976428Y-8375952D01*
X14966905Y-8366428D01*
X14957381Y-8347381D01*
X14947857Y-8309286D01*
X14947857Y-8261667D01*
X14957381Y-8223571D01*
X14966905Y-8204524D01*
X14976428Y-8195000D01*
X14995476Y-8185476D01*
X15147857Y-8366428D02*
X15157381Y-8375952D01*
X15147857Y-8385476D01*
X15138333Y-8375952D01*
X15147857Y-8366428D01*
X15147857Y-8385476D01*
X15281190Y-8185476D02*
X15300238Y-8185476D01*
X15319286Y-8195000D01*
X15328809Y-8204524D01*
X15338333Y-8223571D01*
X15347857Y-8261667D01*
X15347857Y-8309286D01*
X15338333Y-8347381D01*
X15328809Y-8366428D01*
X15319286Y-8375952D01*
X15300238Y-8385476D01*
X15281190Y-8385476D01*
X15262143Y-8375952D01*
X15252619Y-8366428D01*
X15243095Y-8347381D01*
X15233571Y-8309286D01*
X15233571Y-8261667D01*
X15243095Y-8223571D01*
X15252619Y-8204524D01*
X15262143Y-8195000D01*
X15281190Y-8185476D01*
X15538333Y-8385476D02*
X15424048Y-8385476D01*
X15481190Y-8385476D02*
X15481190Y-8185476D01*
X15462143Y-8214048D01*
X15443095Y-8233095D01*
X15424048Y-8242619D01*
X15728809Y-8385476D02*
X15614524Y-8385476D01*
X15671667Y-8385476D02*
X15671667Y-8185476D01*
X15652619Y-8214048D01*
X15633571Y-8233095D01*
X15614524Y-8242619D01*
X15843095Y-8271190D02*
X15824048Y-8261667D01*
X15814524Y-8252143D01*
X15805000Y-8233095D01*
X15805000Y-8223571D01*
X15814524Y-8204524D01*
X15824048Y-8195000D01*
X15843095Y-8185476D01*
X15881190Y-8185476D01*
X15900238Y-8195000D01*
X15909762Y-8204524D01*
X15919286Y-8223571D01*
X15919286Y-8233095D01*
X15909762Y-8252143D01*
X15900238Y-8261667D01*
X15881190Y-8271190D01*
X15843095Y-8271190D01*
X15824048Y-8280714D01*
X15814524Y-8290238D01*
X15805000Y-8309286D01*
X15805000Y-8347381D01*
X15814524Y-8366428D01*
X15824048Y-8375952D01*
X15843095Y-8385476D01*
X15881190Y-8385476D01*
X15900238Y-8375952D01*
X15909762Y-8366428D01*
X15919286Y-8347381D01*
X15919286Y-8309286D01*
X15909762Y-8290238D01*
X15900238Y-8280714D01*
X15881190Y-8271190D01*
X15995476Y-8185476D02*
X15995476Y-8223571D01*
X16071667Y-8185476D02*
X16071667Y-8223571D01*
X16366905Y-8461667D02*
X16357381Y-8452143D01*
X16338333Y-8423571D01*
X16328809Y-8404524D01*
X16319286Y-8375952D01*
X16309762Y-8328333D01*
X16309762Y-8290238D01*
X16319286Y-8242619D01*
X16328809Y-8214048D01*
X16338333Y-8195000D01*
X16357381Y-8166428D01*
X16366905Y-8156905D01*
X16471667Y-8271190D02*
X16452619Y-8261667D01*
X16443095Y-8252143D01*
X16433571Y-8233095D01*
X16433571Y-8223571D01*
X16443095Y-8204524D01*
X16452619Y-8195000D01*
X16471667Y-8185476D01*
X16509762Y-8185476D01*
X16528809Y-8195000D01*
X16538333Y-8204524D01*
X16547857Y-8223571D01*
X16547857Y-8233095D01*
X16538333Y-8252143D01*
X16528809Y-8261667D01*
X16509762Y-8271190D01*
X16471667Y-8271190D01*
X16452619Y-8280714D01*
X16443095Y-8290238D01*
X16433571Y-8309286D01*
X16433571Y-8347381D01*
X16443095Y-8366428D01*
X16452619Y-8375952D01*
X16471667Y-8385476D01*
X16509762Y-8385476D01*
X16528809Y-8375952D01*
X16538333Y-8366428D01*
X16547857Y-8347381D01*
X16547857Y-8309286D01*
X16538333Y-8290238D01*
X16528809Y-8280714D01*
X16509762Y-8271190D01*
X16785952Y-8385476D02*
X16785952Y-8185476D01*
X16871667Y-8385476D02*
X16871667Y-8280714D01*
X16862143Y-8261667D01*
X16843095Y-8252143D01*
X16814524Y-8252143D01*
X16795476Y-8261667D01*
X16785952Y-8271190D01*
X16995476Y-8385476D02*
X16976429Y-8375952D01*
X16966905Y-8366428D01*
X16957381Y-8347381D01*
X16957381Y-8290238D01*
X16966905Y-8271190D01*
X16976429Y-8261667D01*
X16995476Y-8252143D01*
X17024048Y-8252143D01*
X17043095Y-8261667D01*
X17052619Y-8271190D01*
X17062143Y-8290238D01*
X17062143Y-8347381D01*
X17052619Y-8366428D01*
X17043095Y-8375952D01*
X17024048Y-8385476D01*
X16995476Y-8385476D01*
X17176429Y-8385476D02*
X17157381Y-8375952D01*
X17147857Y-8356905D01*
X17147857Y-8185476D01*
X17328810Y-8375952D02*
X17309762Y-8385476D01*
X17271667Y-8385476D01*
X17252619Y-8375952D01*
X17243095Y-8356905D01*
X17243095Y-8280714D01*
X17252619Y-8261667D01*
X17271667Y-8252143D01*
X17309762Y-8252143D01*
X17328810Y-8261667D01*
X17338333Y-8280714D01*
X17338333Y-8299762D01*
X17243095Y-8318809D01*
X17414524Y-8375952D02*
X17433571Y-8385476D01*
X17471667Y-8385476D01*
X17490714Y-8375952D01*
X17500238Y-8356905D01*
X17500238Y-8347381D01*
X17490714Y-8328333D01*
X17471667Y-8318809D01*
X17443095Y-8318809D01*
X17424048Y-8309286D01*
X17414524Y-8290238D01*
X17414524Y-8280714D01*
X17424048Y-8261667D01*
X17443095Y-8252143D01*
X17471667Y-8252143D01*
X17490714Y-8261667D01*
X17566905Y-8461667D02*
X17576429Y-8452143D01*
X17595476Y-8423571D01*
X17605000Y-8404524D01*
X17614524Y-8375952D01*
X17624048Y-8328333D01*
X17624048Y-8290238D01*
X17614524Y-8242619D01*
X17605000Y-8214048D01*
X17595476Y-8195000D01*
X17576429Y-8166428D01*
X17566905Y-8156905D01*
D13*
X12795000Y-8559000D02*
G75*
G03*
X12795000Y-8559000I-20000J0D01*
G01*
D11*
X13090714Y-8449476D02*
X13109762Y-8449476D01*
X13128809Y-8459000D01*
X13138333Y-8468524D01*
X13147857Y-8487571D01*
X13157381Y-8525667D01*
X13157381Y-8573286D01*
X13147857Y-8611381D01*
X13138333Y-8630429D01*
X13128809Y-8639952D01*
X13109762Y-8649476D01*
X13090714Y-8649476D01*
X13071667Y-8639952D01*
X13062143Y-8630429D01*
X13052619Y-8611381D01*
X13043095Y-8573286D01*
X13043095Y-8525667D01*
X13052619Y-8487571D01*
X13062143Y-8468524D01*
X13071667Y-8459000D01*
X13090714Y-8449476D01*
X13243095Y-8630429D02*
X13252619Y-8639952D01*
X13243095Y-8649476D01*
X13233571Y-8639952D01*
X13243095Y-8630429D01*
X13243095Y-8649476D01*
X13424048Y-8516143D02*
X13424048Y-8649476D01*
X13376428Y-8439952D02*
X13328809Y-8582810D01*
X13452619Y-8582810D01*
X13566905Y-8449476D02*
X13585952Y-8449476D01*
X13605000Y-8459000D01*
X13614524Y-8468524D01*
X13624048Y-8487571D01*
X13633571Y-8525667D01*
X13633571Y-8573286D01*
X13624048Y-8611381D01*
X13614524Y-8630429D01*
X13605000Y-8639952D01*
X13585952Y-8649476D01*
X13566905Y-8649476D01*
X13547857Y-8639952D01*
X13538333Y-8630429D01*
X13528809Y-8611381D01*
X13519286Y-8573286D01*
X13519286Y-8525667D01*
X13528809Y-8487571D01*
X13538333Y-8468524D01*
X13547857Y-8459000D01*
X13566905Y-8449476D01*
X13757381Y-8449476D02*
X13776428Y-8449476D01*
X13795476Y-8459000D01*
X13805000Y-8468524D01*
X13814524Y-8487571D01*
X13824048Y-8525667D01*
X13824048Y-8573286D01*
X13814524Y-8611381D01*
X13805000Y-8630429D01*
X13795476Y-8639952D01*
X13776428Y-8649476D01*
X13757381Y-8649476D01*
X13738333Y-8639952D01*
X13728809Y-8630429D01*
X13719286Y-8611381D01*
X13709762Y-8573286D01*
X13709762Y-8525667D01*
X13719286Y-8487571D01*
X13728809Y-8468524D01*
X13738333Y-8459000D01*
X13757381Y-8449476D01*
X13909762Y-8649476D02*
X13909762Y-8516143D01*
X13909762Y-8535190D02*
X13919286Y-8525667D01*
X13938333Y-8516143D01*
X13966905Y-8516143D01*
X13985952Y-8525667D01*
X13995476Y-8544714D01*
X13995476Y-8649476D01*
X13995476Y-8544714D02*
X14005000Y-8525667D01*
X14024048Y-8516143D01*
X14052619Y-8516143D01*
X14071667Y-8525667D01*
X14081190Y-8544714D01*
X14081190Y-8649476D01*
X14176428Y-8649476D02*
X14176428Y-8516143D01*
X14176428Y-8535190D02*
X14185952Y-8525667D01*
X14205000Y-8516143D01*
X14233571Y-8516143D01*
X14252619Y-8525667D01*
X14262143Y-8544714D01*
X14262143Y-8649476D01*
X14262143Y-8544714D02*
X14271667Y-8525667D01*
X14290714Y-8516143D01*
X14319286Y-8516143D01*
X14338333Y-8525667D01*
X14347857Y-8544714D01*
X14347857Y-8649476D01*
X14738333Y-8439952D02*
X14566905Y-8697095D01*
X14995476Y-8449476D02*
X15014524Y-8449476D01*
X15033571Y-8459000D01*
X15043095Y-8468524D01*
X15052619Y-8487571D01*
X15062143Y-8525667D01*
X15062143Y-8573286D01*
X15052619Y-8611381D01*
X15043095Y-8630429D01*
X15033571Y-8639952D01*
X15014524Y-8649476D01*
X14995476Y-8649476D01*
X14976428Y-8639952D01*
X14966905Y-8630429D01*
X14957381Y-8611381D01*
X14947857Y-8573286D01*
X14947857Y-8525667D01*
X14957381Y-8487571D01*
X14966905Y-8468524D01*
X14976428Y-8459000D01*
X14995476Y-8449476D01*
X15147857Y-8630429D02*
X15157381Y-8639952D01*
X15147857Y-8649476D01*
X15138333Y-8639952D01*
X15147857Y-8630429D01*
X15147857Y-8649476D01*
X15281190Y-8449476D02*
X15300238Y-8449476D01*
X15319286Y-8459000D01*
X15328809Y-8468524D01*
X15338333Y-8487571D01*
X15347857Y-8525667D01*
X15347857Y-8573286D01*
X15338333Y-8611381D01*
X15328809Y-8630429D01*
X15319286Y-8639952D01*
X15300238Y-8649476D01*
X15281190Y-8649476D01*
X15262143Y-8639952D01*
X15252619Y-8630429D01*
X15243095Y-8611381D01*
X15233571Y-8573286D01*
X15233571Y-8525667D01*
X15243095Y-8487571D01*
X15252619Y-8468524D01*
X15262143Y-8459000D01*
X15281190Y-8449476D01*
X15538333Y-8649476D02*
X15424048Y-8649476D01*
X15481190Y-8649476D02*
X15481190Y-8449476D01*
X15462143Y-8478048D01*
X15443095Y-8497095D01*
X15424048Y-8506619D01*
X15719286Y-8449476D02*
X15624048Y-8449476D01*
X15614524Y-8544714D01*
X15624048Y-8535190D01*
X15643095Y-8525667D01*
X15690714Y-8525667D01*
X15709762Y-8535190D01*
X15719286Y-8544714D01*
X15728809Y-8563762D01*
X15728809Y-8611381D01*
X15719286Y-8630429D01*
X15709762Y-8639952D01*
X15690714Y-8649476D01*
X15643095Y-8649476D01*
X15624048Y-8639952D01*
X15614524Y-8630429D01*
X15795476Y-8449476D02*
X15928809Y-8449476D01*
X15843095Y-8649476D01*
X15995476Y-8449476D02*
X15995476Y-8487571D01*
X16071667Y-8449476D02*
X16071667Y-8487571D01*
X16366905Y-8725667D02*
X16357381Y-8716143D01*
X16338333Y-8687571D01*
X16328809Y-8668524D01*
X16319286Y-8639952D01*
X16309762Y-8592333D01*
X16309762Y-8554238D01*
X16319286Y-8506619D01*
X16328809Y-8478048D01*
X16338333Y-8459000D01*
X16357381Y-8430429D01*
X16366905Y-8420905D01*
X16547857Y-8649476D02*
X16433571Y-8649476D01*
X16490714Y-8649476D02*
X16490714Y-8449476D01*
X16471667Y-8478048D01*
X16452619Y-8497095D01*
X16433571Y-8506619D01*
X16785952Y-8649476D02*
X16785952Y-8449476D01*
X16871667Y-8649476D02*
X16871667Y-8544714D01*
X16862143Y-8525667D01*
X16843095Y-8516143D01*
X16814524Y-8516143D01*
X16795476Y-8525667D01*
X16785952Y-8535190D01*
X16995476Y-8649476D02*
X16976429Y-8639952D01*
X16966905Y-8630429D01*
X16957381Y-8611381D01*
X16957381Y-8554238D01*
X16966905Y-8535190D01*
X16976429Y-8525667D01*
X16995476Y-8516143D01*
X17024048Y-8516143D01*
X17043095Y-8525667D01*
X17052619Y-8535190D01*
X17062143Y-8554238D01*
X17062143Y-8611381D01*
X17052619Y-8630429D01*
X17043095Y-8639952D01*
X17024048Y-8649476D01*
X16995476Y-8649476D01*
X17176429Y-8649476D02*
X17157381Y-8639952D01*
X17147857Y-8620905D01*
X17147857Y-8449476D01*
X17328810Y-8639952D02*
X17309762Y-8649476D01*
X17271667Y-8649476D01*
X17252619Y-8639952D01*
X17243095Y-8620905D01*
X17243095Y-8544714D01*
X17252619Y-8525667D01*
X17271667Y-8516143D01*
X17309762Y-8516143D01*
X17328810Y-8525667D01*
X17338333Y-8544714D01*
X17338333Y-8563762D01*
X17243095Y-8582810D01*
X17405000Y-8725667D02*
X17414524Y-8716143D01*
X17433571Y-8687571D01*
X17443095Y-8668524D01*
X17452619Y-8639952D01*
X17462143Y-8592333D01*
X17462143Y-8554238D01*
X17452619Y-8506619D01*
X17443095Y-8478048D01*
X17433571Y-8459000D01*
X17414524Y-8430429D01*
X17405000Y-8420905D01*
M02*
