G04 #@! TF.GenerationSoftware,KiCad,Pcbnew,6.0.4-6f826c9f35~116~ubuntu18.04.1*
G04 #@! TF.CreationDate,2022-05-30T12:34:47+02:00*
G04 #@! TF.ProjectId,Micro_43432,4d696372-6f5f-4343-9334-33322e6b6963,rev?*
G04 #@! TF.SameCoordinates,Original*
G04 #@! TF.FileFunction,Copper,L2,Bot*
G04 #@! TF.FilePolarity,Positive*
%FSLAX46Y46*%
G04 Gerber Fmt 4.6, Leading zero omitted, Abs format (unit mm)*
G04 Created by KiCad (PCBNEW 6.0.4-6f826c9f35~116~ubuntu18.04.1) date 2022-05-30 12:34:47*
%MOMM*%
%LPD*%
G01*
G04 APERTURE LIST*
G04 #@! TA.AperFunction,ViaPad*
%ADD10C,0.800000*%
G04 #@! TD*
G04 #@! TA.AperFunction,Conductor*
%ADD11C,0.200000*%
G04 #@! TD*
G04 APERTURE END LIST*
D10*
X136400000Y-74000000D03*
X139100000Y-67900000D03*
X139500000Y-72300000D03*
X137000000Y-66800000D03*
X138800000Y-71500000D03*
X131700000Y-67700000D03*
X139500000Y-66800000D03*
X129600000Y-70200000D03*
X134564501Y-75900000D03*
D11*
X137200000Y-67000000D02*
X137200000Y-69900000D01*
X137000000Y-66800000D02*
X137200000Y-67000000D01*
X137200000Y-69900000D02*
X138800000Y-71500000D01*
X140199511Y-71399511D02*
X138400000Y-69600000D01*
X136400000Y-74000000D02*
X138789259Y-74000000D01*
X138789259Y-74000000D02*
X140199511Y-72589748D01*
X138400000Y-68600000D02*
X139100000Y-67900000D01*
X138400000Y-69600000D02*
X138400000Y-68600000D01*
X140199511Y-72589748D02*
X140199511Y-71399511D01*
G04 #@! TA.AperFunction,Conductor*
G36*
X140643266Y-65820002D02*
G01*
X140689759Y-65873658D01*
X140701140Y-65924849D01*
X140718516Y-67827455D01*
X140718582Y-67834721D01*
X140699203Y-67903022D01*
X140645974Y-67950003D01*
X140625200Y-67957578D01*
X140609529Y-67961777D01*
X140593146Y-67966167D01*
X140593144Y-67966168D01*
X140587836Y-67967590D01*
X140582855Y-67969913D01*
X140582854Y-67969913D01*
X140402444Y-68054039D01*
X140402439Y-68054042D01*
X140397457Y-68056365D01*
X140343555Y-68094108D01*
X140270070Y-68145563D01*
X140225386Y-68176851D01*
X140076851Y-68325386D01*
X140073694Y-68329894D01*
X140073692Y-68329897D01*
X140050835Y-68362540D01*
X139956365Y-68497457D01*
X139954042Y-68502439D01*
X139954039Y-68502444D01*
X139896232Y-68626413D01*
X139867590Y-68687836D01*
X139866168Y-68693144D01*
X139866167Y-68693146D01*
X139835692Y-68806880D01*
X139813222Y-68890739D01*
X139794914Y-69100000D01*
X139813222Y-69309261D01*
X139814646Y-69314574D01*
X139814646Y-69314576D01*
X139864264Y-69499750D01*
X139867590Y-69512164D01*
X139869913Y-69517145D01*
X139869913Y-69517146D01*
X139954039Y-69697556D01*
X139954042Y-69697561D01*
X139956365Y-69702543D01*
X140007471Y-69775529D01*
X140071496Y-69866966D01*
X140076851Y-69874614D01*
X140225386Y-70023149D01*
X140229894Y-70026306D01*
X140229897Y-70026308D01*
X140280711Y-70061888D01*
X140397457Y-70143635D01*
X140402439Y-70145958D01*
X140402444Y-70145961D01*
X140582854Y-70230087D01*
X140587836Y-70232410D01*
X140593144Y-70233832D01*
X140593146Y-70233833D01*
X140622446Y-70241684D01*
X140648344Y-70248623D01*
X140708967Y-70285575D01*
X140739988Y-70349435D01*
X140741728Y-70369174D01*
X140747469Y-70997856D01*
X140750735Y-71355515D01*
X140731356Y-71423816D01*
X140726312Y-71428268D01*
X140746907Y-71460313D01*
X140752006Y-71494660D01*
X140780408Y-74604604D01*
X140794725Y-76172349D01*
X140775346Y-76240650D01*
X140722117Y-76287631D01*
X140668730Y-76299500D01*
X128376000Y-76299500D01*
X128307879Y-76279498D01*
X128261386Y-76225842D01*
X128250000Y-76173500D01*
X128250000Y-74000000D01*
X135794318Y-74000000D01*
X135814956Y-74156762D01*
X135875464Y-74302841D01*
X135971718Y-74428282D01*
X136097159Y-74524536D01*
X136243238Y-74585044D01*
X136400000Y-74605682D01*
X136408188Y-74604604D01*
X136548574Y-74586122D01*
X136556762Y-74585044D01*
X136702841Y-74524536D01*
X136828282Y-74428282D01*
X136888507Y-74349796D01*
X136945844Y-74307929D01*
X136988469Y-74300500D01*
X138736893Y-74300500D01*
X138739566Y-74300696D01*
X138744601Y-74302425D01*
X138756223Y-74301989D01*
X138756225Y-74301989D01*
X138793514Y-74300589D01*
X138798240Y-74300500D01*
X138817207Y-74300500D01*
X138821942Y-74299618D01*
X138825468Y-74299390D01*
X138829208Y-74299249D01*
X138856467Y-74298226D01*
X138867152Y-74293636D01*
X138871752Y-74292599D01*
X138883473Y-74289038D01*
X138887876Y-74287339D01*
X138899312Y-74285209D01*
X138920300Y-74272272D01*
X138936670Y-74263769D01*
X138951147Y-74257549D01*
X138951151Y-74257547D01*
X138959322Y-74254036D01*
X138964208Y-74250022D01*
X138966393Y-74247837D01*
X138968656Y-74245785D01*
X138968801Y-74245945D01*
X138977808Y-74238825D01*
X138984703Y-74232573D01*
X138994607Y-74226468D01*
X139011175Y-74204680D01*
X139022369Y-74191861D01*
X140374963Y-72839267D01*
X140376997Y-72837511D01*
X140381780Y-72835173D01*
X140415084Y-72799271D01*
X140418364Y-72795866D01*
X140431759Y-72782471D01*
X140434483Y-72778501D01*
X140436808Y-72775853D01*
X140450001Y-72761630D01*
X140457912Y-72753102D01*
X140462224Y-72742295D01*
X140464743Y-72738310D01*
X140470515Y-72727501D01*
X140472422Y-72723196D01*
X140479004Y-72713602D01*
X140484697Y-72689612D01*
X140490262Y-72672016D01*
X140496097Y-72657390D01*
X140499394Y-72649126D01*
X140500011Y-72642833D01*
X140500011Y-72639751D01*
X140500161Y-72636681D01*
X140500377Y-72636692D01*
X140501709Y-72625317D01*
X140502164Y-72616003D01*
X140504851Y-72604682D01*
X140501162Y-72577575D01*
X140500011Y-72560584D01*
X140500011Y-71495811D01*
X140520013Y-71427690D01*
X140524304Y-71423971D01*
X140504173Y-71393267D01*
X140498829Y-71361392D01*
X140497737Y-71332303D01*
X140493147Y-71321618D01*
X140492110Y-71317018D01*
X140488549Y-71305297D01*
X140486850Y-71300894D01*
X140484720Y-71289458D01*
X140471783Y-71268470D01*
X140463280Y-71252100D01*
X140457060Y-71237623D01*
X140457058Y-71237619D01*
X140453547Y-71229448D01*
X140449533Y-71224562D01*
X140447348Y-71222377D01*
X140445296Y-71220114D01*
X140445456Y-71219969D01*
X140438336Y-71210962D01*
X140432084Y-71204067D01*
X140425979Y-71194163D01*
X140404191Y-71177595D01*
X140391372Y-71166401D01*
X138737405Y-69512434D01*
X138703379Y-69450122D01*
X138700500Y-69423339D01*
X138700500Y-68776661D01*
X138720502Y-68708540D01*
X138737405Y-68687566D01*
X138896375Y-68528596D01*
X138958687Y-68494570D01*
X139001916Y-68492769D01*
X139100000Y-68505682D01*
X139108188Y-68504604D01*
X139142195Y-68500127D01*
X139196717Y-68492949D01*
X139248574Y-68486122D01*
X139256762Y-68485044D01*
X139402841Y-68424536D01*
X139528282Y-68328282D01*
X139533495Y-68321489D01*
X139619509Y-68209392D01*
X139624536Y-68202841D01*
X139685044Y-68056762D01*
X139705682Y-67900000D01*
X139685044Y-67743238D01*
X139624536Y-67597159D01*
X139556059Y-67507918D01*
X139533305Y-67478264D01*
X139528282Y-67471718D01*
X139402841Y-67375464D01*
X139256762Y-67314956D01*
X139100000Y-67294318D01*
X138943238Y-67314956D01*
X138797159Y-67375464D01*
X138671718Y-67471718D01*
X138666695Y-67478264D01*
X138643941Y-67507918D01*
X138575464Y-67597159D01*
X138514956Y-67743238D01*
X138494318Y-67900000D01*
X138495926Y-67912210D01*
X138507231Y-67998084D01*
X138496292Y-68068232D01*
X138471404Y-68103625D01*
X138224548Y-68350481D01*
X138222514Y-68352237D01*
X138217731Y-68354575D01*
X138209819Y-68363104D01*
X138209818Y-68363105D01*
X138184427Y-68390477D01*
X138181147Y-68393882D01*
X138167752Y-68407277D01*
X138165028Y-68411247D01*
X138162703Y-68413895D01*
X138149508Y-68428119D01*
X138149506Y-68428122D01*
X138141599Y-68436646D01*
X138137289Y-68447450D01*
X138134767Y-68451439D01*
X138129006Y-68462227D01*
X138127089Y-68466552D01*
X138120508Y-68476146D01*
X138117822Y-68487465D01*
X138117821Y-68487467D01*
X138114817Y-68500127D01*
X138109252Y-68517724D01*
X138103412Y-68532362D01*
X138100117Y-68540622D01*
X138099500Y-68546915D01*
X138099500Y-68549994D01*
X138099350Y-68553067D01*
X138099134Y-68553056D01*
X138097802Y-68564431D01*
X138097346Y-68573746D01*
X138094660Y-68585066D01*
X138096229Y-68596595D01*
X138096229Y-68596596D01*
X138098349Y-68612173D01*
X138099500Y-68629164D01*
X138099500Y-69547634D01*
X138099304Y-69550307D01*
X138097575Y-69555342D01*
X138098011Y-69566964D01*
X138098011Y-69566966D01*
X138099411Y-69604255D01*
X138099500Y-69608981D01*
X138099500Y-69627948D01*
X138100382Y-69632683D01*
X138100610Y-69636209D01*
X138101774Y-69667208D01*
X138106364Y-69677893D01*
X138107401Y-69682493D01*
X138110962Y-69694214D01*
X138112661Y-69698617D01*
X138114791Y-69710053D01*
X138120895Y-69719955D01*
X138127727Y-69731039D01*
X138136231Y-69747411D01*
X138142451Y-69761888D01*
X138142453Y-69761892D01*
X138145964Y-69770063D01*
X138149978Y-69774949D01*
X138152163Y-69777134D01*
X138154215Y-69779397D01*
X138154055Y-69779542D01*
X138161175Y-69788549D01*
X138167427Y-69795444D01*
X138173532Y-69805348D01*
X138195320Y-69821916D01*
X138208139Y-69833110D01*
X139080970Y-70705941D01*
X139114996Y-70768253D01*
X139109931Y-70839068D01*
X139067384Y-70895904D01*
X139000864Y-70920715D01*
X138961616Y-70916967D01*
X138956762Y-70914956D01*
X138948578Y-70913879D01*
X138948576Y-70913878D01*
X138808188Y-70895396D01*
X138800000Y-70894318D01*
X138701916Y-70907231D01*
X138631768Y-70896292D01*
X138596375Y-70871404D01*
X137537405Y-69812434D01*
X137503379Y-69750122D01*
X137500500Y-69723339D01*
X137500500Y-67176078D01*
X137517381Y-67113077D01*
X137519509Y-67109392D01*
X137524536Y-67102841D01*
X137585044Y-66956762D01*
X137605682Y-66800000D01*
X137585044Y-66643238D01*
X137524536Y-66497159D01*
X137428282Y-66371718D01*
X137302841Y-66275464D01*
X137156762Y-66214956D01*
X137000000Y-66194318D01*
X136843238Y-66214956D01*
X136697159Y-66275464D01*
X136571718Y-66371718D01*
X136475464Y-66497159D01*
X136414956Y-66643238D01*
X136394318Y-66800000D01*
X136414956Y-66956762D01*
X136475464Y-67102841D01*
X136571718Y-67228282D01*
X136697159Y-67324536D01*
X136812481Y-67372304D01*
X136821718Y-67376130D01*
X136876999Y-67420678D01*
X136899500Y-67492539D01*
X136899500Y-69847634D01*
X136899304Y-69850307D01*
X136897575Y-69855342D01*
X136898011Y-69866964D01*
X136898011Y-69866966D01*
X136899411Y-69904255D01*
X136899500Y-69908981D01*
X136899500Y-69927948D01*
X136900382Y-69932683D01*
X136900610Y-69936209D01*
X136901774Y-69967208D01*
X136906364Y-69977893D01*
X136907401Y-69982493D01*
X136910962Y-69994214D01*
X136912661Y-69998617D01*
X136914791Y-70010053D01*
X136924811Y-70026308D01*
X136927727Y-70031039D01*
X136936231Y-70047411D01*
X136942451Y-70061888D01*
X136942453Y-70061892D01*
X136945964Y-70070063D01*
X136949978Y-70074949D01*
X136952163Y-70077134D01*
X136954215Y-70079397D01*
X136954055Y-70079542D01*
X136961175Y-70088549D01*
X136967427Y-70095444D01*
X136973532Y-70105348D01*
X136995320Y-70121916D01*
X137008139Y-70133110D01*
X138171404Y-71296375D01*
X138205430Y-71358687D01*
X138207231Y-71401916D01*
X138194318Y-71500000D01*
X138214956Y-71656762D01*
X138275464Y-71802841D01*
X138371718Y-71928282D01*
X138497159Y-72024536D01*
X138643238Y-72085044D01*
X138800000Y-72105682D01*
X138808188Y-72104604D01*
X138948574Y-72086122D01*
X138956762Y-72085044D01*
X139102841Y-72024536D01*
X139228282Y-71928282D01*
X139324536Y-71802841D01*
X139385044Y-71656762D01*
X139405682Y-71500000D01*
X139392769Y-71401916D01*
X139386122Y-71351424D01*
X139386121Y-71351422D01*
X139385044Y-71343238D01*
X139383299Y-71339025D01*
X139384947Y-71269761D01*
X139424740Y-71210965D01*
X139490004Y-71183016D01*
X139560018Y-71194789D01*
X139594059Y-71219030D01*
X139862106Y-71487077D01*
X139896132Y-71549389D01*
X139899011Y-71576172D01*
X139899011Y-72413087D01*
X139879009Y-72481208D01*
X139862106Y-72502182D01*
X138701693Y-73662595D01*
X138639381Y-73696621D01*
X138612598Y-73699500D01*
X136988469Y-73699500D01*
X136920348Y-73679498D01*
X136888506Y-73650204D01*
X136833305Y-73578264D01*
X136828282Y-73571718D01*
X136702841Y-73475464D01*
X136556762Y-73414956D01*
X136400000Y-73394318D01*
X136243238Y-73414956D01*
X136097159Y-73475464D01*
X135971718Y-73571718D01*
X135875464Y-73697159D01*
X135814956Y-73843238D01*
X135794318Y-74000000D01*
X128250000Y-74000000D01*
X128250000Y-70372545D01*
X128270002Y-70304424D01*
X128323658Y-70257931D01*
X128343386Y-70250839D01*
X128383350Y-70240131D01*
X128406854Y-70233833D01*
X128406856Y-70233832D01*
X128412164Y-70232410D01*
X128417146Y-70230087D01*
X128597556Y-70145961D01*
X128597561Y-70145958D01*
X128602543Y-70143635D01*
X128719289Y-70061888D01*
X128770103Y-70026308D01*
X128770106Y-70026306D01*
X128774614Y-70023149D01*
X128923149Y-69874614D01*
X128928505Y-69866966D01*
X128992529Y-69775529D01*
X129043635Y-69702543D01*
X129045958Y-69697561D01*
X129045961Y-69697556D01*
X129130087Y-69517146D01*
X129130087Y-69517145D01*
X129132410Y-69512164D01*
X129135737Y-69499750D01*
X129185354Y-69314576D01*
X129185354Y-69314574D01*
X129186778Y-69309261D01*
X129205086Y-69100000D01*
X129201292Y-69056631D01*
X134019646Y-69056631D01*
X134020413Y-69062500D01*
X134020809Y-69065528D01*
X134020809Y-69065529D01*
X134021312Y-69069378D01*
X134037306Y-69191686D01*
X134092162Y-69316356D01*
X134097939Y-69323229D01*
X134097940Y-69323230D01*
X134174024Y-69413743D01*
X134179804Y-69420619D01*
X134293187Y-69496093D01*
X134423195Y-69536710D01*
X134559377Y-69539206D01*
X134640293Y-69517146D01*
X134682124Y-69505742D01*
X134682127Y-69505741D01*
X134690786Y-69503380D01*
X134698436Y-69498683D01*
X134698438Y-69498682D01*
X134799206Y-69436811D01*
X134799209Y-69436808D01*
X134806858Y-69432112D01*
X134898261Y-69331131D01*
X134905420Y-69316356D01*
X134953734Y-69216635D01*
X134953734Y-69216634D01*
X134957649Y-69208554D01*
X134974854Y-69106290D01*
X134979441Y-69079030D01*
X134979441Y-69079025D01*
X134980247Y-69074237D01*
X134980390Y-69062500D01*
X134961081Y-68927671D01*
X134904706Y-68803680D01*
X134815796Y-68700496D01*
X134788578Y-68682854D01*
X134709032Y-68631294D01*
X134709030Y-68631293D01*
X134701501Y-68626413D01*
X134692904Y-68623842D01*
X134692902Y-68623841D01*
X134601799Y-68596596D01*
X134571006Y-68587387D01*
X134562030Y-68587332D01*
X134562029Y-68587332D01*
X134505036Y-68586984D01*
X134434804Y-68586555D01*
X134426172Y-68589022D01*
X134312473Y-68621517D01*
X134312471Y-68621518D01*
X134303842Y-68623984D01*
X134188650Y-68696665D01*
X134182707Y-68703394D01*
X134182706Y-68703395D01*
X134118000Y-68776661D01*
X134098487Y-68798755D01*
X134040601Y-68922048D01*
X134019646Y-69056631D01*
X129201292Y-69056631D01*
X129186778Y-68890739D01*
X129164308Y-68806880D01*
X129133833Y-68693146D01*
X129133832Y-68693144D01*
X129132410Y-68687836D01*
X129103768Y-68626413D01*
X129045961Y-68502444D01*
X129045958Y-68502439D01*
X129043635Y-68497457D01*
X128949165Y-68362540D01*
X128926308Y-68329897D01*
X128926306Y-68329894D01*
X128923149Y-68325386D01*
X128774614Y-68176851D01*
X128729931Y-68145563D01*
X128656445Y-68094108D01*
X128602543Y-68056365D01*
X128597561Y-68054042D01*
X128597556Y-68054039D01*
X128417146Y-67969913D01*
X128417145Y-67969913D01*
X128412164Y-67967590D01*
X128406856Y-67966168D01*
X128406854Y-67966167D01*
X128383350Y-67959869D01*
X128343388Y-67949161D01*
X128282766Y-67912210D01*
X128251745Y-67848350D01*
X128250000Y-67827455D01*
X128250000Y-65926000D01*
X128270002Y-65857879D01*
X128323658Y-65811386D01*
X128376000Y-65800000D01*
X140575145Y-65800000D01*
X140643266Y-65820002D01*
G37*
G04 #@! TD.AperFunction*
M02*
